<svg id="コンポーネント_8_1" data-name="コンポーネント 8 – 1" xmlns="http://www.w3.org/2000/svg" width="37.09" height="37.09" viewBox="0 0 37.09 37.09">
  <g id="パス_244" data-name="パス 244" fill="none">
    <path d="M18.545,0A18.545,18.545,0,1,1,0,18.545,18.545,18.545,0,0,1,18.545,0Z" stroke="none"/>
    <path d="M 18.54502105712891 1 C 13.85858154296875 1 9.452640533447266 2.825000762939453 6.138820648193359 6.138820648193359 C 2.825000762939453 9.452640533447266 1 13.85858154296875 1 18.54502105712891 C 1 23.23146057128906 2.825000762939453 27.63740158081055 6.138820648193359 30.95122146606445 C 9.452640533447266 34.26504135131836 13.85858154296875 36.09004211425781 18.54502105712891 36.09004211425781 C 23.23146057128906 36.09004211425781 27.63740158081055 34.26504135131836 30.95122146606445 30.95122146606445 C 34.26504135131836 27.63740158081055 36.09004211425781 23.23146057128906 36.09004211425781 18.54502105712891 C 36.09004211425781 13.85858154296875 34.26504135131836 9.452640533447266 30.95122146606445 6.138820648193359 C 27.63740158081055 2.825000762939453 23.23146057128906 1 18.54502105712891 1 M 18.54502105712891 0 C 28.78715133666992 0 37.09004211425781 8.302890777587891 37.09004211425781 18.54502105712891 C 37.09004211425781 28.78715133666992 28.78715133666992 37.09004211425781 18.54502105712891 37.09004211425781 C 8.302890777587891 37.09004211425781 0 28.78715133666992 0 18.54502105712891 C 0 8.302890777587891 8.302890777587891 0 18.54502105712891 0 Z" stroke="none" fill="#fff"/>
  </g>
  <path id="Icon_ionic-ios-arrow-round-forward" data-name="Icon ionic-ios-arrow-round-forward" d="M18.567,11.466a.761.761,0,0,0-.006,1.072L22.1,16.084H8.626a.757.757,0,0,0,0,1.514H22.1l-3.541,3.546a.766.766,0,0,0,.006,1.072.754.754,0,0,0,1.066-.006l4.8-4.833h0a.85.85,0,0,0,.157-.239.723.723,0,0,0,.058-.291.759.759,0,0,0-.215-.53l-4.8-4.833A.742.742,0,0,0,18.567,11.466Z" transform="translate(2.111 1.587)" fill="#fff"/>
</svg>
