<svg xmlns="http://www.w3.org/2000/svg" xmlns:xlink="http://www.w3.org/1999/xlink" width="146" height="146" viewBox="0 0 146 146">
  <defs>
    <clipPath id="clip-path">
      <rect id="長方形_184" data-name="長方形 184" width="88.283" height="88.568" fill="none"/>
    </clipPath>
  </defs>
  <g id="グループ_162" data-name="グループ 162" transform="translate(-193 -3616)">
    <path id="パス_301" data-name="パス 301" d="M73,0A73,73,0,1,1,0,73,73,73,0,0,1,73,0Z" transform="translate(193 3616)" fill="#a6deeb"/>
    <g id="グループ_157" data-name="グループ 157" transform="translate(221.858 3644.716)">
      <g id="グループ_156" data-name="グループ 156" transform="translate(0 0)" clip-path="url(#clip-path)">
        <path id="パス_304" data-name="パス 304" d="M50.921,93.369a3.164,3.164,0,0,1-2.967-2.076l-.48-1.317a13.167,13.167,0,0,1-1.641-.019l-.467,1.282a3.158,3.158,0,0,1-4.038,1.886L38.236,92a3.158,3.158,0,0,1-1.884-4.043l.519-1.425q-.612-.483-1.174-1.026l-1.292.747A3.154,3.154,0,0,1,30.1,85.1h0L28.453,82.25a3.157,3.157,0,0,1,1.153-4.307l1.467-.848c-.095-.469-.169-.943-.219-1.421l-1.641-.29a3.157,3.157,0,0,1-2.558-3.652l.572-3.238a3.152,3.152,0,0,1,3.652-2.557l1.825.321q.318-.583.686-1.142l-1.17-1.394a3.156,3.156,0,0,1,.39-4.443l2.516-2.113a3.155,3.155,0,0,1,4.444.391l1.239,1.476q.6-.243,1.211-.436V56.722a3.156,3.156,0,0,1,3.153-3.153h3.286a3.157,3.157,0,0,1,3.154,3.153V58.6q.631.2,1.247.452l1.165-1.388a3.153,3.153,0,0,1,4.442-.39h0l2.518,2.112a3.157,3.157,0,0,1,.389,4.444l-1.111,1.322q.4.6.735,1.231l1.622-.287a3.152,3.152,0,0,1,3.652,2.554v0l.571,3.239a3.153,3.153,0,0,1-2.559,3.652h0l-1.527.269q-.089.778-.249,1.535l1.272.736a3.153,3.153,0,0,1,1.153,4.307l-1.643,2.846a3.152,3.152,0,0,1-4.307,1.153h0l-1.234-.713a16.129,16.129,0,0,1-1.249,1.049l.469,1.286a3.154,3.154,0,0,1-1.883,4.041h0L51.99,93.173a3.126,3.126,0,0,1-1.077.191m-2.766-5.439a1,1,0,0,1,.933.655l.738,2.027a1.166,1.166,0,0,0,1.092.763A1.14,1.14,0,0,0,51.3,91.3l3.09-1.123a1.161,1.161,0,0,0,.695-1.488h0l-.726-1.994a1,1,0,0,1,.373-1.163,14.188,14.188,0,0,0,2.137-1.8,1,1,0,0,1,1.211-.169l1.891,1.092a1.162,1.162,0,0,0,1.586-.423h0L63.2,81.385A1.161,1.161,0,0,0,62.78,79.8l-1.918-1.108a1,1,0,0,1-.464-1.119,14.024,14.024,0,0,0,.437-2.684,1,1,0,0,1,.821-.916l2.276-.4a1.161,1.161,0,0,0,.944-1.343v0L64.3,68.989a1.162,1.162,0,0,0-.482-.752,1.144,1.144,0,0,0-.861-.189l-2.353.415a1,1,0,0,1-1.072-.553,14.087,14.087,0,0,0-1.336-2.24,1,1,0,0,1,.042-1.226l1.6-1.905A1.164,1.164,0,0,0,59.7,60.9l-2.518-2.111a1.159,1.159,0,0,0-1.634.142L53.915,60.9a1,1,0,0,1-1.187.263,14.1,14.1,0,0,0-2.362-.848,1,1,0,0,1-.743-.964V56.724a1.163,1.163,0,0,0-1.162-1.161H45.175a1.162,1.162,0,0,0-1.161,1.161v2.624a1,1,0,0,1-.745.964,14.07,14.07,0,0,0-2.327.837,1,1,0,0,1-1.18-.265l-1.716-2.045a1.163,1.163,0,0,0-1.637-.145l-2.517,2.114a1.164,1.164,0,0,0-.143,1.636l1.658,1.976a1,1,0,0,1,.041,1.229,14.08,14.08,0,0,0-1.3,2.153,1,1,0,0,1-1.069.546L30.539,67.9a1.162,1.162,0,0,0-1.346.943l-.571,3.237a1.162,1.162,0,0,0,.942,1.344l2.4.424a1,1,0,0,1,.82.922,14.079,14.079,0,0,0,.394,2.583.994.994,0,0,1-.468,1.1l-2.1,1.213a1.162,1.162,0,0,0-.423,1.586L31.828,84.1a1.162,1.162,0,0,0,1.587.423l1.956-1.13a1,1,0,0,1,1.224.179,14.2,14.2,0,0,0,2.051,1.8A1,1,0,0,1,39,86.519l-.771,2.119a1.162,1.162,0,0,0,.695,1.488l3.089,1.125a1.167,1.167,0,0,0,1.488-.695l.73-2.006a.993.993,0,0,1,1.053-.648,11.846,11.846,0,0,0,2.776.032c.034,0,.066-.005.1-.005m-1.4-6.235a8.224,8.224,0,1,1,8.224-8.224,8.225,8.225,0,0,1-8.224,8.224m0-14.455a6.232,6.232,0,1,0,6.231,6.232,6.232,6.232,0,0,0-6.231-6.232" transform="translate(-2.384 -4.801)" fill="#09f"/>
        <path id="パス_305" data-name="パス 305" d="M20.84,78.052a43.765,43.765,0,0,1-9.226-1.089C4.868,75,.717,68.879,2.343,63.3s8.414-8.506,15.161-6.539a26.872,26.872,0,0,1,5.081,2.6" transform="translate(-0.178 -5.032)" fill="none" stroke="#09f" stroke-linecap="round" stroke-linejoin="round" stroke-width="3"/>
        <path id="パス_306" data-name="パス 306" d="M30.537,51.815a11.221,11.221,0,0,0-3.294-3.189c-3.977-2.409-8.816-1.7-10.809,1.592a6.337,6.337,0,0,0-.536,5.2" transform="translate(-1.396 -4.23)" fill="none" stroke="#09f" stroke-linecap="round" stroke-linejoin="round" stroke-width="3"/>
        <path id="パス_307" data-name="パス 307" d="M42.917,46.655c-.316-1.1-1.893-6.157-6.782-8.478-4.783-2.271-11.833-1.5-14.1,2.642a7.572,7.572,0,0,0-.536,5.2" transform="translate(-1.906 -3.309)" fill="none" stroke="#09f" stroke-linecap="round" stroke-linejoin="round" stroke-width="3"/>
        <path id="パス_308" data-name="パス 308" d="M39.46,37.034a9.8,9.8,0,0,1,7.631-3.391,9.656,9.656,0,0,1,6.782,3.391,8.652,8.652,0,0,1,13.566,4.239" transform="translate(-3.536 -3.014)" fill="none" stroke="#09f" stroke-linecap="round" stroke-linejoin="round" stroke-width="3"/>
        <path id="パス_309" data-name="パス 309" d="M62.742,49.728a7.949,7.949,0,0,1,5.935-6.782,6.865,6.865,0,0,1,5.935,1.7,6.719,6.719,0,0,1,1.7,5.087c-.281,4.97-5.711,7.529-5.935,7.631" transform="translate(-5.623 -3.839)" fill="none" stroke="#09f" stroke-linecap="round" stroke-linejoin="round" stroke-width="3"/>
        <path id="パス_310" data-name="パス 310" d="M78.574,47.6A7.656,7.656,0,0,1,87.9,56.075" transform="translate(-7.042 -4.251)" fill="none" stroke="#09f" stroke-linecap="round" stroke-linejoin="round" stroke-width="3"/>
        <path id="パス_311" data-name="パス 311" d="M74.766,62.96c3.089-4.325,8.437-5.989,12.717-4.239a10.052,10.052,0,0,1,5.936,7.63c.9,5.521-3.413,9.426-4.24,10.174-6.033,5.462-14.778,2.7-15.261,2.544" transform="translate(-6.624 -5.201)" fill="none" stroke="#09f" stroke-linecap="round" stroke-linejoin="round" stroke-width="3"/>
        <path id="パス_312" data-name="パス 312" d="M10.853,45.693,4.071,39.759V26.193" transform="translate(-0.365 -2.348)" fill="none" stroke="#09f" stroke-linecap="round" stroke-linejoin="round" stroke-width="3"/>
        <path id="パス_313" data-name="パス 313" d="M6.9,16.989a2.95,2.95,0,1,1-2.95-2.95A2.95,2.95,0,0,1,6.9,16.989Z" transform="translate(-0.09 -1.258)" fill="none" stroke="#09f" stroke-linecap="round" stroke-linejoin="round" stroke-width="2"/>
        <path id="パス_314" data-name="パス 314" d="M19.938,4.882a2.95,2.95,0,1,1-2.95-2.95A2.95,2.95,0,0,1,19.938,4.882Z" transform="translate(-1.258 -0.173)" fill="none" stroke="#09f" stroke-linecap="round" stroke-linejoin="round" stroke-width="2"/>
        <path id="パス_315" data-name="パス 315" d="M36.7,15.126a2.95,2.95,0,1,1-2.95-2.95A2.95,2.95,0,0,1,36.7,15.126Z" transform="translate(-2.76 -1.091)" fill="none" stroke="#09f" stroke-linecap="round" stroke-linejoin="round" stroke-width="2"/>
        <path id="パス_316" data-name="パス 316" d="M51.6,3.95A2.95,2.95,0,1,1,48.653,1,2.95,2.95,0,0,1,51.6,3.95Z" transform="translate(-4.096 -0.09)" fill="none" stroke="#09f" stroke-linecap="round" stroke-linejoin="round" stroke-width="2"/>
        <path id="パス_317" data-name="パス 317" d="M65.572,15.126a2.95,2.95,0,1,1-2.95-2.95A2.95,2.95,0,0,1,65.572,15.126Z" transform="translate(-5.348 -1.091)" fill="none" stroke="#09f" stroke-linecap="round" stroke-linejoin="round" stroke-width="2"/>
        <path id="パス_318" data-name="パス 318" d="M82.335,4.882a2.95,2.95,0,1,1-2.95-2.95A2.95,2.95,0,0,1,82.335,4.882Z" transform="translate(-6.85 -0.173)" fill="none" stroke="#09f" stroke-linecap="round" stroke-linejoin="round" stroke-width="2"/>
        <path id="パス_319" data-name="パス 319" d="M95.373,16.989a2.95,2.95,0,1,1-2.95-2.95A2.95,2.95,0,0,1,95.373,16.989Z" transform="translate(-8.018 -1.258)" fill="none" stroke="#09f" stroke-linecap="round" stroke-linejoin="round" stroke-width="2"/>
        <path id="パス_320" data-name="パス 320" d="M20.965,33.886l-3.391-4.24V12.69" transform="translate(-1.575 -1.138)" fill="none" stroke="#09f" stroke-linecap="round" stroke-linejoin="round" stroke-width="2"/>
        <line id="線_24" data-name="線 24" y1="7.631" transform="translate(31.26 20.878)" fill="none" stroke="#09f" stroke-linecap="round" stroke-linejoin="round" stroke-width="2"/>
        <line id="線_25" data-name="線 25" y1="14.438" transform="translate(43.978 11.527)" fill="none" stroke="#09f" stroke-linecap="round" stroke-linejoin="round" stroke-width="2"/>
        <line id="線_26" data-name="線 26" y1="5.935" transform="translate(56.696 20.878)" fill="none" stroke="#09f" stroke-linecap="round" stroke-linejoin="round" stroke-width="2"/>
        <path id="パス_321" data-name="パス 321" d="M76.246,33.886l3.391-3.391V12.69" transform="translate(-6.833 -1.138)" fill="none" stroke="#09f" stroke-linecap="round" stroke-linejoin="round" stroke-width="2"/>
        <path id="パス_322" data-name="パス 322" d="M88.353,43.532l3.391-3.391V25.728" transform="translate(-7.918 -2.306)" fill="none" stroke="#09f" stroke-linecap="round" stroke-linejoin="round" stroke-width="2"/>
      </g>
    </g>
  </g>
</svg>
