<svg xmlns="http://www.w3.org/2000/svg" xmlns:xlink="http://www.w3.org/1999/xlink" width="146" height="146" viewBox="0 0 146 146">
  <defs>
    <clipPath id="clip-path">
      <rect id="長方形_187" data-name="長方形 187" width="93.011" height="81.565" fill="none"/>
    </clipPath>
  </defs>
  <g id="グループ_164" data-name="グループ 164" transform="translate(-193 -3880)">
    <path id="パス_302" data-name="パス 302" d="M73,0A73,73,0,1,1,0,73,73,73,0,0,1,73,0Z" transform="translate(193 3880)" fill="#a6deeb"/>
    <g id="グループ_161" data-name="グループ 161" transform="translate(219.495 3920.426)">
      <g id="グループ_160" data-name="グループ 160" clip-path="url(#clip-path)">
        <path id="パス_330" data-name="パス 330" d="M48.4,47.6A7.071,7.071,0,0,1,49.593,44a5.667,5.667,0,0,1,4.173-1.7,5.807,5.807,0,0,1,4.4,1.249,5.812,5.812,0,0,1,1.446,4.039,5.248,5.248,0,0,1-.168,1.737,6.5,6.5,0,0,1-1.174,1.98A5.25,5.25,0,0,1,57.141,52.5c-1.674,1.146-4.17.1-5.873,1.2-.533.345-.927.869-1.434,1.252-.388.295-1.261.7-1.72.308s-.247-1.665-.241-2.2A44.162,44.162,0,0,1,48.4,47.6" transform="translate(2.677 2.367)" fill="#09f"/>
        <path id="パス_331" data-name="パス 331" d="M56.6,40.771a1.031,1.031,0,0,1-.288-.517,1.08,1.08,0,0,1,.186-.634A68.582,68.582,0,0,1,63.353,29.9l4.638-5.832c1.269-1.6,2.539-3.192,3.867-4.737a64.587,64.587,0,0,1,6.187-6.316,56.525,56.525,0,0,1-3.194,7.431c-3.759,7.7-7.513,16.017-13.186,22.51-.784.9-1.525.4-2.483-.116a9.291,9.291,0,0,1-2.58-2.065" transform="translate(3.152 0.728)" fill="#09f"/>
        <path id="パス_332" data-name="パス 332" d="M61.046,44.973a.913.913,0,0,1-.512-.157l-5.406-3.653a.916.916,0,0,1-.247-1.27c.013-.019.026-.037.04-.054L77.755,10.846A1.494,1.494,0,1,1,80.307,12.4c-.024.04-.051.079-.078.117l-18.39,32a.916.916,0,0,1-.794.464M56.968,40.2l3.774,2.548L76.354,15.585Z" transform="translate(3.063 0.567)" fill="#09f"/>
        <path id="パス_333" data-name="パス 333" d="M48.98,56.589a2.037,2.037,0,0,1-.756-.151,2.271,2.271,0,0,1-1.437-2.22l.535-7.755a4.681,4.681,0,0,1,.791-2.293,6.926,6.926,0,0,1,9.43-2.073,6.791,6.791,0,0,1,2.017,9.391c-.022.036-.045.071-.07.106l-.118.176a6.83,6.83,0,0,1-5.3,2.375,4.086,4.086,0,0,0-3.7,1.788,1.777,1.777,0,0,1-1.382.656m4.96-13.719a5.224,5.224,0,0,0-4.313,2.321,2.852,2.852,0,0,0-.48,1.4l-.533,7.755a.408.408,0,0,0,.132.288.449.449,0,0,0,.214.124,5.9,5.9,0,0,1,5.1-2.441h.115a4.046,4.046,0,0,0,.467-.018,4.966,4.966,0,0,0,3.208-1.553l.116-.175a4.961,4.961,0,0,0-1.351-6.886l-.075-.05a4.753,4.753,0,0,0-2.6-.762" transform="translate(2.619 2.298)" fill="#09f"/>
        <rect id="長方形_186" data-name="長方形 186" width="89.842" height="63.956" rx="2.145" transform="translate(1.584 1.584)" fill="none" stroke="#09f" stroke-miterlimit="10" stroke-width="3"/>
        <path id="パス_334" data-name="パス 334" d="M30.426,40.343a.971.971,0,0,1,.91.64l.721,1.978a1.126,1.126,0,0,0,1.45.676l3.016-1.1a1.133,1.133,0,0,0,.678-1.452h0l-.709-1.946a.97.97,0,0,1,.364-1.134,13.9,13.9,0,0,0,2.086-1.754.971.971,0,0,1,1.182-.165l1.845,1.064a1.133,1.133,0,0,0,1.548-.413h0l1.605-2.778a1.133,1.133,0,0,0-.414-1.546l-1.872-1.081a.973.973,0,0,1-.453-1.093,13.645,13.645,0,0,0,.427-2.619.971.971,0,0,1,.8-.893l2.222-.393a1.133,1.133,0,0,0,.922-1.31v0L46.2,21.862a1.129,1.129,0,0,0-.47-.734,1.11,1.11,0,0,0-.841-.185l-2.3.4a.971.971,0,0,1-1.046-.54,13.764,13.764,0,0,0-1.305-2.185.974.974,0,0,1,.041-1.2l1.561-1.86a1.136,1.136,0,0,0-.139-1.6l-2.458-2.061a1.134,1.134,0,0,0-1.6.139l-1.591,1.917a.973.973,0,0,1-1.158.257,13.716,13.716,0,0,0-2.3-.828.971.971,0,0,1-.725-.941V9.891a1.135,1.135,0,0,0-1.134-1.133H27.525a1.134,1.134,0,0,0-1.133,1.133v2.561a.973.973,0,0,1-.727.941,13.641,13.641,0,0,0-2.271.816.974.974,0,0,1-1.152-.259l-1.675-2a1.135,1.135,0,0,0-1.6-.14l-2.457,2.062a1.136,1.136,0,0,0-.139,1.6L17.992,17.4a.971.971,0,0,1,.039,1.2,13.834,13.834,0,0,0-1.266,2.1.971.971,0,0,1-1.043.532L13.239,20.8a1.133,1.133,0,0,0-1.313.92l-.558,3.159a1.133,1.133,0,0,0,.92,1.312l2.34.414a.973.973,0,0,1,.8.9,13.745,13.745,0,0,0,.384,2.521.973.973,0,0,1-.457,1.076l-2.05,1.183a1.135,1.135,0,0,0-.413,1.548l1.6,2.779a1.135,1.135,0,0,0,1.549.414l1.908-1.1a.972.972,0,0,1,1.194.175,13.8,13.8,0,0,0,2,1.752.973.973,0,0,1,.346,1.124l-.753,2.069a1.135,1.135,0,0,0,.678,1.453l3.016,1.1a1.138,1.138,0,0,0,1.451-.679l.713-1.958a.97.97,0,0,1,1.029-.633,11.57,11.57,0,0,0,2.71.031c.032,0,.064,0,.1,0" transform="translate(0.635 0.49)" fill="#09f"/>
        <path id="パス_335" data-name="パス 335" d="M28.406,19.864a6.082,6.082,0,1,0,6.081,6.083,6.083,6.083,0,0,0-6.081-6.083" transform="translate(1.249 1.112)" fill="#a6deeb"/>
        <path id="パス_336" data-name="パス 336" d="M35.235,63.484q-1.522,6.09-3.045,12.182H58.077q-.762-6.09-1.523-12.182" transform="translate(1.802 3.553)" fill="none" stroke="#09f" stroke-miterlimit="10" stroke-width="3"/>
        <line id="線_30" data-name="線 30" x2="44.921" transform="translate(24.094 79.981)" fill="none" stroke="#09f" stroke-linecap="round" stroke-linejoin="round" stroke-width="3"/>
      </g>
    </g>
  </g>
</svg>
