<svg xmlns="http://www.w3.org/2000/svg" width="948.776" height="533.433" viewBox="0 0 948.776 533.433">
  <g id="グループ_179" data-name="グループ 179" transform="translate(-208.612 -4308.087)">
    <path id="パス_352" data-name="パス 352" d="M-110.292-19.176a19.753,19.753,0,0,1-4.536,4.536,34.371,34.371,0,0,1-12.5,6.216A5.958,5.958,0,0,1-126.2-6.5a37.456,37.456,0,0,0,9.072-4.1v8.64A15.906,15.906,0,0,1-117.276.84h2.448a19.819,19.819,0,0,1-.12-2.832v-9.96a40.169,40.169,0,0,0,5.76-5.016,8.816,8.816,0,0,1,.864-.816Zm8.856,3.576a26.647,26.647,0,0,1,5.856,4.752l1.464-1.8a33.206,33.206,0,0,0-5.9-4.56Zm.36,15.672a12.969,12.969,0,0,1,1.488-.384,24.5,24.5,0,0,0,9-3.6,20.891,20.891,0,0,0,7.416-9.24,6.1,6.1,0,0,1-1.776-1.656c-1.968,5.16-5.136,8.64-9.72,10.68a21.874,21.874,0,0,1-7.032,1.8ZM-62-10.152c1.272,0,2.184.048,2.952.12v-2.16a19.081,19.081,0,0,1-2.976.168H-75.852a19.909,19.909,0,0,1-2.976-.168v2.16a23.464,23.464,0,0,1,2.928-.12h6.24a13.021,13.021,0,0,1-.984,4.8c-1.008,2.088-2.9,3.552-5.976,4.536a5.465,5.465,0,0,1,1.368,1.872A14.426,14.426,0,0,0-71.028-1.32a9.6,9.6,0,0,0,3.24-6.072,19,19,0,0,0,.312-2.76Zm-14.4-5.832a22.311,22.311,0,0,1,2.928-.12h9.12a29.536,29.536,0,0,1,2.952.12v-2.16a15.293,15.293,0,0,1-2.976.168h-9.072a15.158,15.158,0,0,1-2.952-.168ZM-51.516-18.6a13.845,13.845,0,0,1,.12,2.28v5.856a16.678,16.678,0,0,1-.12,2.424h2.376a19.823,19.823,0,0,1-.1-2.424v-5.88a18.209,18.209,0,0,1,.1-2.256Zm10.7.024a16.149,16.149,0,0,1,.1,2.376v2.568c0,2.712-.024,3.24-.1,4.272-.288,3.264-1.152,4.824-3.48,6.384a12.825,12.825,0,0,1-5.136,1.944A5.382,5.382,0,0,1-48.228.96,20.881,20.881,0,0,0-43.764-.768,9.166,9.166,0,0,0-39.18-6.192c.432-1.416.624-3.528.624-7.32v-2.712a13.6,13.6,0,0,1,.12-2.352Zm12.7,1.824a25.534,25.534,0,0,1,6.048,3.216l1.128-1.9a37.778,37.778,0,0,0-6.072-3.048Zm-1.9,5.76a27.639,27.639,0,0,1,6.24,3.36l1.08-1.92A37.361,37.361,0,0,0-28.86-12.72Zm14.376-7.8A16.752,16.752,0,0,1-13.14-15l1.416-.792a18.782,18.782,0,0,0-2.52-3.72ZM-29.052.552a5.346,5.346,0,0,1,.96-.264c.48-.1.888-.192,1.3-.264a29.381,29.381,0,0,0,6.24-2.112C-16.308-4.2-13.38-7.464-11.268-12.48a8.994,8.994,0,0,1-1.8-1.536A17.03,17.03,0,0,1-15.924-8.64a15.618,15.618,0,0,1-7.1,5.328,21.346,21.346,0,0,1-6.6,1.512Zm16.2-20.64a17.589,17.589,0,0,1,2.472,3.72l1.392-.792a17.909,17.909,0,0,0-2.52-3.648ZM2.964-9.792h3.5a17.009,17.009,0,0,1,2.256.1v-1.992a11.793,11.793,0,0,1-2.28.168H-2.268a14.72,14.72,0,0,1-2.28-.144V-9.7a19.414,19.414,0,0,1,2.28-.1H1V-1.68H-3.732a12.077,12.077,0,0,1-2.28-.144V.168a18.838,18.838,0,0,1,2.3-.1H7.908a14.542,14.542,0,0,1,2.3.12V-1.8a14,14,0,0,1-2.3.12H2.964ZM17.6-15.6a26.647,26.647,0,0,1,5.856,4.752l1.464-1.8a33.206,33.206,0,0,0-5.9-4.56ZM17.964.072a12.969,12.969,0,0,1,1.488-.384,24.5,24.5,0,0,0,9-3.6,20.891,20.891,0,0,0,7.416-9.24,6.1,6.1,0,0,1-1.776-1.656c-1.968,5.16-5.136,8.64-9.72,10.68a21.873,21.873,0,0,1-7.032,1.8ZM47.412.84a21.405,21.405,0,0,1-.12-2.784V-8.208a14.218,14.218,0,0,0-.1-1.968,4.94,4.94,0,0,0,.792.408,50.985,50.985,0,0,1,8.832,4.7l1.2-2.088a62.821,62.821,0,0,0-10.728-5.064v-4.272a19.125,19.125,0,0,1,.12-2.712H44.988a13.474,13.474,0,0,1,.144,2.64V-1.944A16.94,16.94,0,0,1,44.988.84ZM63.636,0H74.652V-2.4H66.516V-7.008H72.8V-8.88H66.516v-4.512h7.92v-2.4h-10.8ZM76.884,0h2.88V-6.264H84.2c2.112,0,2.76.864,2.76,2.448V0h2.9V-3.864c0-1.9-.72-3.24-2.64-3.528V-7.44c1.848-.336,2.736-1.728,2.736-3.768,0-2.832-2.088-4.584-6.144-4.584H76.884Zm2.88-8.16v-5.232H83.8c2.3,0,3.408.96,3.408,2.544,0,1.68-1.008,2.688-3.336,2.688ZM92.7,0h2.88V-4.9h4.008c3.792,0,5.856-1.968,5.856-5.4,0-3.528-2.3-5.5-6.216-5.5H92.7Zm2.88-6.936v-6.456h3.552c2.3,0,3.576,1.152,3.576,3.24,0,2.16-1.2,3.216-3.288,3.216Zm32.328,4.824a5.278,5.278,0,0,1-2.88-1.032,16.97,16.97,0,0,0,2.688-5.76h-2.4a13.25,13.25,0,0,1-1.992,4.368,19.024,19.024,0,0,1-2.952-3.7c2.712-.264,4.3-1.872,4.3-4.128,0-2.136-1.464-3.672-4.08-3.672-2.712,0-4.224,1.56-4.224,3.888a8.1,8.1,0,0,0,.624,2.688,4.519,4.519,0,0,0-4.032,4.56c0,2.952,2.064,5.136,5.688,5.136A7.428,7.428,0,0,0,123.228-1.3,7.6,7.6,0,0,0,127.6.192a3.294,3.294,0,0,0,.672-.072V-2.136A2.373,2.373,0,0,1,127.908-2.112Zm-7.224-11.76a1.536,1.536,0,0,1,1.632,1.632c0,1.248-.84,2.16-2.76,2.4a5.23,5.23,0,0,1-.528-2.208A1.637,1.637,0,0,1,120.684-13.872ZM115.62-4.944A2.474,2.474,0,0,1,117.8-7.536h.1a21.814,21.814,0,0,0,3.624,4.776,5.029,5.029,0,0,1-2.712.768A2.9,2.9,0,0,1,115.62-4.944ZM-112.68,32.44v1.44h2.3a15.382,15.382,0,0,1-.12-2.376V19.048c0-.912,0-1.32.048-1.9-.6.024-.96.048-1.248.048h-11.64a15,15,0,0,1-2.976-.168v2.28a22.5,22.5,0,0,1,2.952-.12h10.7V30.448H-123.84a13.785,13.785,0,0,1-2.832-.168v2.256a24.308,24.308,0,0,1,2.808-.1Zm27.144-16.32a5.362,5.362,0,0,1-2.112.168h-12.768a19.023,19.023,0,0,1-3-.168V18.3a24.134,24.134,0,0,1,2.952-.12H-87.12a11.914,11.914,0,0,1-2.568,3.408,10.707,10.707,0,0,1-3.72,2.256,6.065,6.065,0,0,1,1.464,1.608,14.727,14.727,0,0,0,6.96-7.008,5.521,5.521,0,0,1,.6-1.008Zm-10.728,4.344a5.286,5.286,0,0,1,.1,1.32c0,4.656-.888,6.984-3.408,9.024a11.375,11.375,0,0,1-4.32,2.136,5.812,5.812,0,0,1,1.32,1.944,13.624,13.624,0,0,0,6.168-4.2c1.632-2.088,2.28-4.416,2.376-8.472a9.139,9.139,0,0,1,.1-1.752Zm25.848,2.184a2.243,2.243,0,0,0-2.232,2.232,2.238,2.238,0,0,0,2.232,2.208,2.238,2.238,0,0,0,2.208-2.232A2.2,2.2,0,0,0-70.416,22.648Zm18.024-5.592a16.809,16.809,0,0,1-2.976-.168v2.28a22.858,22.858,0,0,1,2.928-.144h11.856c-1.32,5.16-3.624,8.592-7.488,11.16a18.741,18.741,0,0,1-5.376,2.52,5.8,5.8,0,0,1,1.44,1.992,22.493,22.493,0,0,0,7.584-4.608,20.775,20.775,0,0,0,6-10.464l.144-.5a2.874,2.874,0,0,0,.792.12A2.735,2.735,0,0,0-34.752,16.5a2.735,2.735,0,0,0-2.736-2.736A2.735,2.735,0,0,0-40.224,16.5a3.939,3.939,0,0,0,.048.552Zm14.9-2.232a1.7,1.7,0,0,1,1.68,1.68,1.7,1.7,0,0,1-1.68,1.68,1.7,1.7,0,0,1-1.68-1.68A1.7,1.7,0,0,1-37.488,14.824Zm8.28,3a21.494,21.494,0,0,1,2.736-.12h7.848a20.593,20.593,0,0,1,2.736.12v-2.16a14.244,14.244,0,0,1-2.76.168h-7.8a13.4,13.4,0,0,1-2.76-.168Zm-2.064,5.616a23.318,23.318,0,0,1,3.024-.12h12.12a13.791,13.791,0,0,1-3.912,6.12,15.6,15.6,0,0,1-6.96,3.5,6.087,6.087,0,0,1,1.272,1.968,21.631,21.631,0,0,0,5.88-2.9,16.247,16.247,0,0,0,5.784-8.04,5.863,5.863,0,0,1,.672-1.512l-1.032-1.2a5.241,5.241,0,0,1-1.9.192h-11.9a17.551,17.551,0,0,1-3.048-.168ZM-6.24,21.28a20.294,20.294,0,0,1,2.232,5.472l1.944-.648A27.627,27.627,0,0,0-4.44,20.68Zm4.992-1.008A22.189,22.189,0,0,1,.96,25.624l1.9-.648A25.685,25.685,0,0,0,.528,19.72Zm8.3-.1a13.464,13.464,0,0,1-.864,3.96c-1.56,4.488-4.344,7.344-9.072,9.336A6.118,6.118,0,0,1-1.512,35.1,18.658,18.658,0,0,0,5.4,29.752a19.856,19.856,0,0,0,3.456-8.016,10.271,10.271,0,0,1,.312-1.1ZM22.872,34.84a21.405,21.405,0,0,1-.12-2.784V25.792a14.218,14.218,0,0,0-.1-1.968,4.941,4.941,0,0,0,.792.408,50.985,50.985,0,0,1,8.832,4.7l1.2-2.088a62.821,62.821,0,0,0-10.728-5.064V17.512a19.125,19.125,0,0,1,.12-2.712H20.448a13.474,13.474,0,0,1,.144,2.64V32.056a16.94,16.94,0,0,1-.144,2.784ZM55.224,16.768a4.8,4.8,0,0,1-1.824.192H41.976A16.653,16.653,0,0,1,39,16.792v2.28a19.14,19.14,0,0,1,2.928-.144H53.784c-1.32,5.16-3.624,8.592-7.488,11.16a18.741,18.741,0,0,1-5.376,2.52A5.581,5.581,0,0,1,42.36,34.6a22.882,22.882,0,0,0,7.584-4.608,20.775,20.775,0,0,0,6-10.464,6.229,6.229,0,0,1,.528-1.584ZM73.3,33.208v.264a13.423,13.423,0,0,1-.1,1.848h2.112a11.64,11.64,0,0,1-.12-2.112l-.12-9.1H77.3a12.933,12.933,0,0,1,2.16.12v-1.92a12.249,12.249,0,0,1-2.16.12H75.048l-.024-1.608v-.408a8.145,8.145,0,0,1,.1-1.44H73.1a10.286,10.286,0,0,1,.12,1.9l.024,1.56H66.192a10.324,10.324,0,0,1-2.16-.144v1.944a13.288,13.288,0,0,1,2.16-.12h5.9a21.041,21.041,0,0,1-9.048,7.68,5.368,5.368,0,0,1,1.272,1.584C68.5,31.12,71.9,28.1,73.152,25.5c.1-.216.1-.216.144-.312-.024.6-.048,1.416-.048,1.9Zm12.336-7.2a26.219,26.219,0,0,1,3.336-.12h13.44a28.039,28.039,0,0,1,3.264.12V23.632a19.638,19.638,0,0,1-3.24.144H88.944a26.181,26.181,0,0,1-3.312-.144Zm30.7-11.112a41.958,41.958,0,0,1-1.848,6.84,95.034,95.034,0,0,1-3.576,9.552c-.936.072-1.824.12-2.064.12a4.309,4.309,0,0,1-.648-.048l.288,2.376a14.1,14.1,0,0,1,2.088-.288c6.384-.624,11.088-1.224,13.848-1.8.528-.1.528-.1.816-.168a25.112,25.112,0,0,1,1.344,3.168l2.04-1.08a61.1,61.1,0,0,0-5.928-10.92l-1.848.864a46.237,46.237,0,0,1,3.6,6.168c-2.568.528-7.728,1.176-11.16,1.44a137.382,137.382,0,0,0,4.92-13.968,11.231,11.231,0,0,1,.624-1.7Z" transform="translate(1007.46 4328.895)" fill="#272727"/>
    <path id="パス_344" data-name="パス 344" d="M-41.136-16.008a15.883,15.883,0,0,1,.144-2.376h-2.376a15.225,15.225,0,0,1,.12,2.352v10.8a16.116,16.116,0,0,0,.072,1.968A3.174,3.174,0,0,0-42.144-.936c.888.72,2.472,1.008,5.448,1.008a72.006,72.006,0,0,0,7.608-.456,6.007,6.007,0,0,1,1.056-.1l-.144-2.28a13.976,13.976,0,0,1-2.424.48,46.825,46.825,0,0,1-5.568.408c-2.568,0-4.032-.24-4.512-.744-.36-.384-.456-.888-.456-2.52V-8.928A34.554,34.554,0,0,0-36.5-10.056a41.1,41.1,0,0,0,6.96-2.928,7.119,7.119,0,0,1,1.056-.528l-1.44-1.944a13.993,13.993,0,0,1-3.7,2.16,32.43,32.43,0,0,1-7.512,2.424Zm13.224-4.344a17.589,17.589,0,0,1,2.472,3.72l1.392-.792a17.909,17.909,0,0,0-2.52-3.648Zm-2.784,1.3a16.752,16.752,0,0,1,2.5,3.792l1.416-.792a18.782,18.782,0,0,0-2.52-3.72Zm11.52,2.3a25.534,25.534,0,0,1,6.048,3.216l1.128-1.9a37.778,37.778,0,0,0-6.072-3.048Zm-1.9,5.76a27.639,27.639,0,0,1,6.24,3.36l1.08-1.92A37.361,37.361,0,0,0-19.92-12.72Zm14.376-7.8A16.752,16.752,0,0,1-4.2-15l1.416-.792a18.782,18.782,0,0,0-2.52-3.72ZM-20.112.552a5.346,5.346,0,0,1,.96-.264c.48-.1.888-.192,1.3-.264a29.381,29.381,0,0,0,6.24-2.112C-7.368-4.2-4.44-7.464-2.328-12.48a8.994,8.994,0,0,1-1.8-1.536A17.03,17.03,0,0,1-6.984-8.64a15.618,15.618,0,0,1-7.1,5.328,21.346,21.346,0,0,1-6.6,1.512Zm16.2-20.64a17.589,17.589,0,0,1,2.472,3.72l1.392-.792a17.909,17.909,0,0,0-2.52-3.648ZM12.936,1.32a16.656,16.656,0,0,1-.12-2.592V-6.456a6.576,6.576,0,0,0-.024-.792,2.9,2.9,0,0,0-.048-.5,13.892,13.892,0,0,0,1.464.72,44.37,44.37,0,0,1,6.96,3.744l1.176-1.9A44.708,44.708,0,0,0,13.68-9.216,35.787,35.787,0,0,0,18.816-13.8a6.565,6.565,0,0,1,.984-1.008l-1.032-1.2a3.5,3.5,0,0,1-1.224.168H12.768v-1.944a9.6,9.6,0,0,1,.12-1.824H10.632a12.154,12.154,0,0,1,.1,1.848v1.92H6.576a14.971,14.971,0,0,1-2.616-.168v2.136a16.249,16.249,0,0,1,2.616-.144h8.4c.192,0,.744-.024,1.08-.048l.48-.048a24.144,24.144,0,0,1-3.216,2.856A30.222,30.222,0,0,1,1.8-6.024,6.511,6.511,0,0,1,2.832-4.152,37.476,37.476,0,0,0,10.056-7.08a3.982,3.982,0,0,0,.744-.528,8.5,8.5,0,0,0-.048,1.1v5.256a17.469,17.469,0,0,1-.12,2.568ZM45.864-1.416A60.6,60.6,0,0,0,37.9-8.472a31.048,31.048,0,0,0,3.864-6.672,4.159,4.159,0,0,1,.7-1.2l-1.176-1.2a4.514,4.514,0,0,1-1.7.216l-8.3.1h-.528a12.38,12.38,0,0,1-2.28-.144l.072,2.28a20.046,20.046,0,0,1,2.76-.192c7.872-.12,7.872-.12,8.16-.144a1.654,1.654,0,0,1-.072.192,1.943,1.943,0,0,0-.144.312,24.977,24.977,0,0,1-5.328,7.872A23.3,23.3,0,0,1,25.968-1.68,6.243,6.243,0,0,1,27.36.216,30.53,30.53,0,0,0,32.04-2.64,26.609,26.609,0,0,0,36.6-6.864,47.921,47.921,0,0,1,44.16.456ZM-75.1,16.12a5.362,5.362,0,0,1-2.112.168H-89.976a19.023,19.023,0,0,1-3-.168V18.3a24.134,24.134,0,0,1,2.952-.12H-76.68a11.914,11.914,0,0,1-2.568,3.408,10.707,10.707,0,0,1-3.72,2.256A6.065,6.065,0,0,1-81.5,25.456a14.727,14.727,0,0,0,6.96-7.008,5.521,5.521,0,0,1,.6-1.008Zm-10.728,4.344a5.286,5.286,0,0,1,.1,1.32c0,4.656-.888,6.984-3.408,9.024a11.375,11.375,0,0,1-4.32,2.136,5.812,5.812,0,0,1,1.32,1.944,13.624,13.624,0,0,0,6.168-4.2c1.632-2.088,2.28-4.416,2.376-8.472a9.139,9.139,0,0,1,.1-1.752Zm19.872-3.408a16.809,16.809,0,0,1-2.976-.168v2.28A22.858,22.858,0,0,1-66,19.024h11.856c-1.32,5.16-3.624,8.592-7.488,11.16a18.741,18.741,0,0,1-5.376,2.52,5.8,5.8,0,0,1,1.44,1.992,22.493,22.493,0,0,0,7.584-4.608,20.775,20.775,0,0,0,6-10.464l.144-.5a2.874,2.874,0,0,0,.792.12A2.735,2.735,0,0,0-48.312,16.5a2.735,2.735,0,0,0-2.736-2.736A2.735,2.735,0,0,0-53.784,16.5a3.939,3.939,0,0,0,.048.552Zm14.9-2.232a1.7,1.7,0,0,1,1.68,1.68,1.7,1.7,0,0,1-1.68,1.68,1.7,1.7,0,0,1-1.68-1.68A1.7,1.7,0,0,1-51.048,14.824Zm8.472.576a13.845,13.845,0,0,1,.12,2.28v5.856a16.678,16.678,0,0,1-.12,2.424H-40.2a19.823,19.823,0,0,1-.1-2.424v-5.88a18.209,18.209,0,0,1,.1-2.256Zm10.7.024a16.149,16.149,0,0,1,.1,2.376v2.568c0,2.712-.024,3.24-.1,4.272-.288,3.264-1.152,4.824-3.48,6.384a12.825,12.825,0,0,1-5.136,1.944,5.382,5.382,0,0,1,1.2,1.992,20.881,20.881,0,0,0,4.464-1.728,9.166,9.166,0,0,0,4.584-5.424c.432-1.416.624-3.528.624-7.32V17.776a13.6,13.6,0,0,1,.12-2.352ZM-4.92,21.04a29.708,29.708,0,0,1,3,.1V19a19.093,19.093,0,0,1-2.976.144H-14.76c-.648.024-1.008.024-1.1.024a19.911,19.911,0,0,0,1.2-2.568,8.176,8.176,0,0,1,.6-1.272l-2.208-.624A13.744,13.744,0,0,1-17.5,18.088a17.933,17.933,0,0,1-5.112,6.624,4.573,4.573,0,0,1,1.7,1.344,20.687,20.687,0,0,0,4.128-5.016h6.384c-.216,4.248-1.248,6.984-3.432,9.048a13.649,13.649,0,0,1-5.016,3,4.613,4.613,0,0,1,1.416,1.848,16.305,16.305,0,0,0,6.168-4.44c1.824-2.232,2.664-4.752,2.952-8.784.024-.408.024-.408.048-.672Zm6.912,4.968a26.219,26.219,0,0,1,3.336-.12h13.44a28.039,28.039,0,0,1,3.264.12V23.632a19.638,19.638,0,0,1-3.24.144H5.3a26.181,26.181,0,0,1-3.312-.144Zm27.144-8.9A26.311,26.311,0,0,1,35.184,20.3l1.128-1.872a35.9,35.9,0,0,0-6.072-3.048Zm-1.9,5.76a27.639,27.639,0,0,1,6.24,3.36l1.08-1.92a37.361,37.361,0,0,0-6.168-3.168Zm.96,11.52a5.561,5.561,0,0,1,.96-.24c.48-.1.888-.192,1.3-.264a29.381,29.381,0,0,0,6.24-2.112c4.248-2.112,7.176-5.4,9.288-10.392a9.852,9.852,0,0,1-1.8-1.536,16.91,16.91,0,0,1-2.856,5.352,15.453,15.453,0,0,1-7.1,5.328,20.673,20.673,0,0,1-6.6,1.512Zm36.144-.24V35.32h1.968a14.3,14.3,0,0,1-.1-2.16V22.816c0-.936,0-1.272.048-2.04-.5.048-1.1.072-1.968.072H55.584a15.061,15.061,0,0,1-2.3-.144v1.968a17.621,17.621,0,0,1,2.3-.1h8.76v3.912H56.136a11.928,11.928,0,0,1-2.28-.144v1.92a17.668,17.668,0,0,1,2.28-.1h8.208v4.224h-9a14.424,14.424,0,0,1-2.3-.144V34.24a16.964,16.964,0,0,1,2.28-.1ZM75.5,18.4a26.647,26.647,0,0,1,5.856,4.752l1.464-1.8a33.206,33.206,0,0,0-5.9-4.56Zm.36,15.672a12.969,12.969,0,0,1,1.488-.384,24.5,24.5,0,0,0,9-3.6,20.891,20.891,0,0,0,7.416-9.24,6.1,6.1,0,0,1-1.776-1.656c-1.968,5.16-5.136,8.64-9.72,10.68a21.874,21.874,0,0,1-7.032,1.8Z" transform="translate(380 4413.5)" fill="#272727"/>
    <path id="パス_351" data-name="パス 351" d="M-114.828-10.176c1.272,0,2.208.048,2.952.12v-2.136a18.88,18.88,0,0,1-2.976.168h-13.824a19.909,19.909,0,0,1-2.976-.168v2.136a23.659,23.659,0,0,1,2.952-.12h6.216a13.158,13.158,0,0,1-.984,4.824c-1.008,2.088-2.9,3.528-5.976,4.512a5.169,5.169,0,0,1,1.368,1.872,15.009,15.009,0,0,0,4.224-2.352,9.664,9.664,0,0,0,3.24-6.1,19.022,19.022,0,0,0,.336-2.76Zm-14.4-5.808a22.086,22.086,0,0,1,2.928-.12h6.84a23.9,23.9,0,0,1,2.952.12v-2.16a15.293,15.293,0,0,1-2.976.168h-6.792a15.158,15.158,0,0,1-2.952-.168Zm15.624-4.368a17.589,17.589,0,0,1,2.472,3.72l1.392-.792a17.909,17.909,0,0,0-2.52-3.648Zm-3.024.936a16.751,16.751,0,0,1,2.5,3.792l1.416-.792a18.782,18.782,0,0,0-2.52-3.72ZM-107.7-7.992a26.219,26.219,0,0,1,3.336-.12h13.44a28.039,28.039,0,0,1,3.264.12v-2.376a19.638,19.638,0,0,1-3.24.144h-13.488a26.181,26.181,0,0,1-3.312-.144Zm31.944-11.88a14.718,14.718,0,0,1-1.416,3.288,20.992,20.992,0,0,1-6.1,6.84,5.262,5.262,0,0,1,1.68,1.368,24.783,24.783,0,0,0,5.688-6.36l8.112-.1a27.955,27.955,0,0,1-3.12,6.552,33.4,33.4,0,0,0-5.184-3.576l-1.32,1.464a28.329,28.329,0,0,1,5.256,3.768,17.452,17.452,0,0,1-4.08,3.672,24.019,24.019,0,0,1-4.9,2.544,5.581,5.581,0,0,1,1.416,1.776c5.04-2.352,8.28-5.016,10.7-8.808a38.718,38.718,0,0,0,3.192-6.624,5.385,5.385,0,0,1,.7-1.584l-1.224-1.224a4.149,4.149,0,0,1-1.584.24c-6.72.072-6.72.072-7.08.144.192-.336.432-.744.7-1.272a12.274,12.274,0,0,1,.792-1.536ZM-40.14-2.112a5.278,5.278,0,0,1-2.88-1.032A16.97,16.97,0,0,0-40.332-8.9h-2.4a13.25,13.25,0,0,1-1.992,4.368,19.024,19.024,0,0,1-2.952-3.7c2.712-.264,4.3-1.872,4.3-4.128,0-2.136-1.464-3.672-4.08-3.672-2.712,0-4.224,1.56-4.224,3.888a8.1,8.1,0,0,0,.624,2.688A4.519,4.519,0,0,0-55.092-4.9C-55.092-1.944-53.028.24-49.4.24A7.428,7.428,0,0,0-44.82-1.3,7.6,7.6,0,0,0-40.452.192,3.3,3.3,0,0,0-39.78.12V-2.136A2.373,2.373,0,0,1-40.14-2.112Zm-7.224-11.76a1.536,1.536,0,0,1,1.632,1.632c0,1.248-.84,2.16-2.76,2.4a5.23,5.23,0,0,1-.528-2.208A1.637,1.637,0,0,1-47.364-13.872Zm-5.064,8.928a2.474,2.474,0,0,1,2.184-2.592h.1A21.814,21.814,0,0,0-46.524-2.76a5.029,5.029,0,0,1-2.712.768A2.9,2.9,0,0,1-52.428-4.944ZM-12.684-17.88a5.362,5.362,0,0,1-2.112.168H-27.564a19.023,19.023,0,0,1-3-.168V-15.7a24.134,24.134,0,0,1,2.952-.12h13.344a11.914,11.914,0,0,1-2.568,3.408,10.707,10.707,0,0,1-3.72,2.256,6.065,6.065,0,0,1,1.464,1.608,14.727,14.727,0,0,0,6.96-7.008,5.521,5.521,0,0,1,.6-1.008Zm-10.728,4.344a5.286,5.286,0,0,1,.1,1.32c0,4.656-.888,6.984-3.408,9.024a11.375,11.375,0,0,1-4.32,2.136A5.812,5.812,0,0,1-29.724.888a13.624,13.624,0,0,0,6.168-4.2c1.632-2.088,2.28-4.416,2.376-8.472a9.139,9.139,0,0,1,.1-1.752Zm27.576.36c0-.312,0-.312.024-2.04v-1.656a9.847,9.847,0,0,1,.144-2.112h-2.4a12.791,12.791,0,0,1,.12,2.136v1.632c0,.648,0,1.128-.024,2.04H-4.38a20.7,20.7,0,0,1-3-.168v2.208a26.066,26.066,0,0,1,2.976-.12H1.932C1.74-8.448,1.476-7.344.732-5.928A11.16,11.16,0,0,1-5.2-1.056,5.317,5.317,0,0,1-3.684.792a13.921,13.921,0,0,0,6-5.136c1.128-1.8,1.584-3.648,1.752-6.912H9.252a25.559,25.559,0,0,1,2.976.12v-2.208a17.108,17.108,0,0,1-3,.168ZM19.836-18.6a13.845,13.845,0,0,1,.12,2.28v5.856a16.678,16.678,0,0,1-.12,2.424h2.376a19.823,19.823,0,0,1-.1-2.424v-5.88a18.209,18.209,0,0,1,.1-2.256Zm10.7.024a16.149,16.149,0,0,1,.1,2.376v2.568c0,2.712-.024,3.24-.1,4.272-.288,3.264-1.152,4.824-3.48,6.384a12.825,12.825,0,0,1-5.136,1.944A5.382,5.382,0,0,1,23.124.96,20.881,20.881,0,0,0,27.588-.768a9.166,9.166,0,0,0,4.584-5.424c.432-1.416.624-3.528.624-7.32v-2.712a13.6,13.6,0,0,1,.12-2.352Zm26.808,8.424c1.272,0,2.184.048,2.952.12v-2.16a19.081,19.081,0,0,1-2.976.168H43.5a19.909,19.909,0,0,1-2.976-.168v2.16a23.464,23.464,0,0,1,2.928-.12h6.24a13.021,13.021,0,0,1-.984,4.8C47.7-3.264,45.8-1.8,42.732-.816A5.465,5.465,0,0,1,44.1,1.056,14.426,14.426,0,0,0,48.324-1.32a9.6,9.6,0,0,0,3.24-6.072,19,19,0,0,0,.312-2.76Zm-14.4-5.832a22.311,22.311,0,0,1,2.928-.12H55a29.536,29.536,0,0,1,2.952.12v-2.16a15.293,15.293,0,0,1-2.976.168H45.9a15.158,15.158,0,0,1-2.952-.168ZM79.02-15a7.377,7.377,0,0,1-1.368,1.608,27.554,27.554,0,0,1-6.816,4.944A24.146,24.146,0,0,1,65.2-6.312,6.326,6.326,0,0,1,66.228-4.56a29.622,29.622,0,0,0,7.2-3.24v6.792a13.491,13.491,0,0,1-.12,2.28H75.54a14,14,0,0,1-.12-2.3V-9A37.718,37.718,0,0,0,80-13.008a5.489,5.489,0,0,1,.768-.768ZM95.7-19.608A10.16,10.16,0,0,1,94.26-16.2a18.279,18.279,0,0,1-6.072,6.7A4.406,4.406,0,0,1,89.82-8.04a24.077,24.077,0,0,0,5.688-6.192l7.848-.12a21.174,21.174,0,0,1-4.1,7.824,20.122,20.122,0,0,1-8.4,5.9,4.834,4.834,0,0,1,1.44,1.752,23.613,23.613,0,0,0,8.4-6.024,24.936,24.936,0,0,0,4.824-9.1,3.537,3.537,0,0,1,.528-1.248l-1.176-1.152a3.393,3.393,0,0,1-1.392.192c-.72.024-2.76.048-6.12.1h-.288a2.3,2.3,0,0,0-.6.072,21.684,21.684,0,0,0,1.056-2.088,3.2,3.2,0,0,1,.528-.936ZM131.556-1.416a60.6,60.6,0,0,0-7.968-7.056,31.048,31.048,0,0,0,3.864-6.672,4.159,4.159,0,0,1,.7-1.2l-1.176-1.2a4.514,4.514,0,0,1-1.7.216l-8.3.1h-.528a12.38,12.38,0,0,1-2.28-.144l.072,2.28a20.046,20.046,0,0,1,2.76-.192c7.872-.12,7.872-.12,8.16-.144a1.654,1.654,0,0,1-.072.192,1.942,1.942,0,0,0-.144.312A24.977,24.977,0,0,1,119.6-7.056,23.3,23.3,0,0,1,111.66-1.68a6.243,6.243,0,0,1,1.392,1.9,30.53,30.53,0,0,0,4.68-2.856,26.609,26.609,0,0,0,4.56-4.224,47.921,47.921,0,0,1,7.56,7.32Z" transform="translate(623.394 4840.055)" fill="#272727"/>
    <path id="パス_353" data-name="パス 353" d="M-69.228-10.176c1.272,0,2.208.048,2.952.12v-2.136a18.88,18.88,0,0,1-2.976.168H-83.076a19.909,19.909,0,0,1-2.976-.168v2.136a23.658,23.658,0,0,1,2.952-.12h6.216a13.158,13.158,0,0,1-.984,4.824c-1.008,2.088-2.9,3.528-5.976,4.512a5.169,5.169,0,0,1,1.368,1.872A15.009,15.009,0,0,0-78.252-1.32a9.664,9.664,0,0,0,3.24-6.1,19.023,19.023,0,0,0,.336-2.76Zm-14.4-5.808A22.087,22.087,0,0,1-80.7-16.1h6.84a23.9,23.9,0,0,1,2.952.12v-2.16a15.293,15.293,0,0,1-2.976.168h-6.792a15.158,15.158,0,0,1-2.952-.168ZM-68-20.352a17.589,17.589,0,0,1,2.472,3.72l1.392-.792a17.909,17.909,0,0,0-2.52-3.648Zm-3.024.936a16.752,16.752,0,0,1,2.5,3.792l1.416-.792a18.782,18.782,0,0,0-2.52-3.72Zm15.192,5.28V-16.68a14.17,14.17,0,0,1,.12-2.184h-2.328a17.027,17.027,0,0,1,.12,2.208v2.52h-1.824a18.061,18.061,0,0,1-2.9-.168v2.136c.888-.072,1.512-.12,2.856-.12h1.872v3.456a19.944,19.944,0,0,1-.12,2.4h2.3a19.622,19.622,0,0,1-.1-2.4v-3.456h6.984c-.024,1.536-.024,1.7-.048,2.256-.144,3.36-.7,5.016-2.208,6.552A10.051,10.051,0,0,1-56.1-.768a5.466,5.466,0,0,1,1.3,1.824A13.249,13.249,0,0,0-50.388-1.32,9.05,9.05,0,0,0-47-7.92a36.775,36.775,0,0,0,.192-4.368h1.968a28.064,28.064,0,0,1,2.856.12V-14.3a17.343,17.343,0,0,1-2.88.168h-1.92v-2.448a16.65,16.65,0,0,1,.1-2.256h-2.232a12.616,12.616,0,0,1,.1,2.424v2.28ZM-46-19.8a15.643,15.643,0,0,1,1.656,3.936l1.392-.432A16.787,16.787,0,0,0-44.6-20.184Zm2.832-.72a18.134,18.134,0,0,1,1.68,3.864l1.344-.456a16.716,16.716,0,0,0-1.7-3.84Zm20.28,1.344A19.753,19.753,0,0,1-27.42-14.64a34.371,34.371,0,0,1-12.5,6.216A5.958,5.958,0,0,1-38.8-6.5a37.455,37.455,0,0,0,9.072-4.1v8.64A15.906,15.906,0,0,1-29.868.84h2.448a19.819,19.819,0,0,1-.12-2.832v-9.96a40.169,40.169,0,0,0,5.76-5.016,8.816,8.816,0,0,1,.864-.816Zm8.856,3.576a26.647,26.647,0,0,1,5.856,4.752l1.464-1.8a33.206,33.206,0,0,0-5.9-4.56Zm.36,15.672A12.969,12.969,0,0,1-12.18-.312a24.5,24.5,0,0,0,9-3.6,20.891,20.891,0,0,0,7.416-9.24A6.1,6.1,0,0,1,2.46-14.808C.492-9.648-2.676-6.168-7.26-4.128a21.874,21.874,0,0,1-7.032,1.8ZM28.02-2.112a5.278,5.278,0,0,1-2.88-1.032A16.97,16.97,0,0,0,27.828-8.9h-2.4a13.25,13.25,0,0,1-1.992,4.368,19.024,19.024,0,0,1-2.952-3.7c2.712-.264,4.3-1.872,4.3-4.128,0-2.136-1.464-3.672-4.08-3.672-2.712,0-4.224,1.56-4.224,3.888A8.1,8.1,0,0,0,17.1-9.456,4.519,4.519,0,0,0,13.068-4.9c0,2.952,2.064,5.136,5.688,5.136A7.428,7.428,0,0,0,23.34-1.3,7.6,7.6,0,0,0,27.708.192,3.3,3.3,0,0,0,28.38.12V-2.136A2.373,2.373,0,0,1,28.02-2.112ZM20.8-13.872a1.536,1.536,0,0,1,1.632,1.632c0,1.248-.84,2.16-2.76,2.4a5.23,5.23,0,0,1-.528-2.208A1.637,1.637,0,0,1,20.8-13.872ZM15.732-4.944a2.474,2.474,0,0,1,2.184-2.592h.1A21.814,21.814,0,0,0,21.636-2.76a5.029,5.029,0,0,1-2.712.768A2.9,2.9,0,0,1,15.732-4.944ZM48.876-8.808c0,1.224-.024,1.608-.1,2.76h-.744a15.006,15.006,0,0,1-2.376-.12v1.68a15.382,15.382,0,0,1,2.376-.12h.624a6.239,6.239,0,0,1-2.9,4.752A4.818,4.818,0,0,1,47.172,1.32a8.035,8.035,0,0,0,3.1-5.928h3.36V-.96a11.044,11.044,0,0,1-.12,2.064H55.38a10.144,10.144,0,0,1-.12-2.04V-4.608h.96a15.416,15.416,0,0,1,2.352.12v-1.68a14.85,14.85,0,0,1-2.352.12h-.96v-2.76h.648a19.346,19.346,0,0,1,2.3.1v-1.632a15.416,15.416,0,0,1-2.352.12H48.444a15.07,15.07,0,0,1-2.328-.12v1.632a19.346,19.346,0,0,1,2.3-.1Zm4.752,0v2.76H50.412c.072-1.2.072-1.416.072-2.76Zm-9.552-3.1h4.56c1.032,0,1.68.024,2.376.072-.048-.624-.072-1.2-.072-2.208v-3.144c0-.912.024-1.584.072-2.28a21.058,21.058,0,0,1-2.448.1H44.7a21.47,21.47,0,0,1-2.5-.1c.072.768.1,1.464.1,2.664V-1.032a19,19,0,0,1-.144,2.784H44.22a18.4,18.4,0,0,1-.144-2.76Zm0-6.1h5.208v1.656H44.076Zm0,3h5.208v1.728H44.076Zm17.88-1.8a22.138,22.138,0,0,1,.12-2.664,21.945,21.945,0,0,1-2.52.1H55.428a20.535,20.535,0,0,1-2.448-.1c.048.768.072,1.416.072,2.28v3.144c0,.984-.024,1.584-.072,2.208.672-.048,1.416-.072,2.376-.072H60.18V-.936c0,.552-.168.672-.864.672A18.552,18.552,0,0,1,56.724-.5a5.292,5.292,0,0,1,.5,1.824c1.056.048,1.656.072,2.184.072,1.968,0,2.544-.48,2.544-2.184ZM54.708-18H60.18v1.656H54.708Zm0,3H60.18v1.728H54.708Zm13.92,8.088A16.147,16.147,0,0,1,66.2-7.056v1.9A16.826,16.826,0,0,1,68.628-5.3h3.408a5.552,5.552,0,0,1-1.8,3.12A11.612,11.612,0,0,1,65.652.192a6.179,6.179,0,0,1,1.32,1.656A16.85,16.85,0,0,0,69.036.936a13.081,13.081,0,0,0,2.832-2.16A8.07,8.07,0,0,0,73.86-5.3H77.6V-.456c0,1.536.72,1.9,3.816,1.9,4.272,0,4.68-.312,5.256-4.08a5.436,5.436,0,0,1-1.848-.72,5.4,5.4,0,0,1-.6,2.64c-.312.36-.912.456-2.592.456a8,8,0,0,1-1.7-.12c-.432-.072-.552-.24-.552-.672V-5.3h4.152a16.6,16.6,0,0,1,2.424.144v-1.9a16.37,16.37,0,0,1-2.424.144H79.38v-3.216h.264a17.97,17.97,0,0,1,2.088.1v-1.176A24.63,24.63,0,0,0,86.2-8.592a7.44,7.44,0,0,1,1.032-1.68,18.076,18.076,0,0,1-4.3-2.232,20.436,20.436,0,0,0,1.92-1.872c.888-1.008.888-1.008,1.128-1.248l-1.56-.984a15,15,0,0,1-2.736,3.168c-.7-.552-1.32-1.1-1.872-1.632a23.918,23.918,0,0,0,2.376-2.5,4.92,4.92,0,0,1,.5-.576l-1.56-.984a12.9,12.9,0,0,1-2.4,2.928,6.706,6.706,0,0,1-1.752-3.072,14.162,14.162,0,0,1-2.112.1H70.356a11.1,11.1,0,0,1-1.8-.12v1.824a13.027,13.027,0,0,1,1.512-.12h4.248a14.26,14.26,0,0,1-2.832,3.384A31.164,31.164,0,0,0,68-17.28L66.636-16.2a19.978,19.978,0,0,1,3.552,3.144,17.97,17.97,0,0,1-5.232,3,5.45,5.45,0,0,1,1.08,1.536,22.566,22.566,0,0,0,4.536-2.688v1.176a14.03,14.03,0,0,1,1.872-.1A23.328,23.328,0,0,1,72.3-6.912ZM77.6-10.128v3.216H74.1a28.091,28.091,0,0,0,.144-3.216ZM72.78-11.712a14.223,14.223,0,0,1-1.512-.048,20.3,20.3,0,0,0,4.824-5.5,18.83,18.83,0,0,0,4.92,5.5,13.3,13.3,0,0,1-1.488.048Z" transform="translate(1041.148 4684.858)" fill="#272727"/>
    <path id="楕円形_6" data-name="楕円形 6" d="M447.083-2c30.381,0,60.744,1.065,90.245,3.165,28.755,2.047,57.041,5.1,84.071,9.079,26.547,3.906,52.154,8.742,76.11,14.372a669.164,669.164,0,0,1,66.367,19.051A427.206,427.206,0,0,1,818.727,66.8C835,75.178,848.988,84.146,860.3,93.452c11.594,9.536,20.511,19.538,26.5,29.727a70.425,70.425,0,0,1,6.971,15.9,57.937,57.937,0,0,1,0,32.927,70.425,70.425,0,0,1-6.971,15.9c-5.993,10.189-14.911,20.191-26.5,29.727-11.314,9.306-25.3,18.274-41.576,26.654a427.206,427.206,0,0,1-54.851,23.13,669.164,669.164,0,0,1-66.367,19.051c-23.956,5.63-49.563,10.466-76.11,14.372-27.031,3.978-55.316,7.032-84.071,9.079-29.5,2.1-59.864,3.165-90.245,3.165s-60.744-1.065-90.245-3.165c-28.755-2.047-57.041-5.1-84.071-9.079-26.547-3.906-52.154-8.742-76.11-14.372a669.176,669.176,0,0,1-66.367-19.051,427.2,427.2,0,0,1-54.851-23.13c-16.273-8.38-30.261-17.348-41.576-26.654C22.27,208.091,13.352,198.09,7.359,187.9A70.42,70.42,0,0,1,.388,172a57.937,57.937,0,0,1,0-32.927,70.42,70.42,0,0,1,6.971-15.9c5.993-10.189,14.91-20.191,26.5-29.727,11.315-9.306,25.3-18.274,41.576-26.654a427.2,427.2,0,0,1,54.851-23.13,669.176,669.176,0,0,1,66.367-19.051c23.956-5.63,49.563-10.466,76.11-14.372,27.031-3.978,55.316-7.032,84.071-9.079C386.339-.935,416.7-2,447.083-2Zm0,311.08c30.287,0,60.554-1.062,89.961-3.155,28.656-2.04,56.841-5.084,83.773-9.047,26.436-3.89,51.931-8.7,75.777-14.309a665.2,665.2,0,0,0,65.968-18.935A423.222,423.222,0,0,0,816.9,240.726c16.021-8.25,29.77-17.061,40.866-26.187,11.23-9.237,19.843-18.882,25.6-28.666a66.426,66.426,0,0,0,6.579-14.99,53.937,53.937,0,0,0,0-30.685,66.426,66.426,0,0,0-6.579-14.99c-5.755-9.784-14.367-19.428-25.6-28.666-11.1-9.126-24.845-17.937-40.866-26.187a423.22,423.22,0,0,0-54.334-22.909,665.2,665.2,0,0,0-65.968-18.935c-23.846-5.6-49.341-10.419-75.777-14.309-26.932-3.963-55.117-7.007-83.773-9.047C507.637,3.061,477.37,2,447.083,2s-60.554,1.062-89.961,3.155c-28.656,2.04-56.841,5.084-83.773,9.047-26.436,3.89-51.931,8.7-75.777,14.309A665.2,665.2,0,0,0,131.6,47.445,423.22,423.22,0,0,0,77.27,70.354C61.249,78.6,47.5,87.415,36.4,96.541c-11.23,9.237-19.843,18.882-25.6,28.666A66.426,66.426,0,0,0,4.228,140.2a53.937,53.937,0,0,0,0,30.685,66.426,66.426,0,0,0,6.579,14.99c5.755,9.784,14.367,19.428,25.6,28.666,11.1,9.126,24.845,17.937,40.866,26.187A423.222,423.222,0,0,0,131.6,263.634a665.2,665.2,0,0,0,65.968,18.935c23.846,5.6,49.341,10.419,75.777,14.309,26.932,3.963,55.117,7.007,83.773,9.047C386.529,308.018,416.8,309.08,447.083,309.08Z" transform="matrix(0.967, -0.254, 0.254, 0.967, 211.055, 4538.236)" fill="#009cb1"/>
    <path id="パス_247" data-name="パス 247" d="M198.594,194.62a67,67,0,1,1-67-67,67,67,0,0,1,67,67" transform="translate(246.796 4334)" fill="#a6deeb"/>
    <path id="パス_248" data-name="パス 248" d="M620.334,67a67,67,0,1,1-67-67,67,67,0,0,1,67,67" transform="translate(246.796 4334)" fill="#a6deeb"/>
    <path id="パス_249" data-name="パス 249" d="M860.352,242.307a67,67,0,1,1-67-67,67,67,0,0,1,67,67" transform="translate(246.796 4334)" fill="#a6deeb"/>
    <path id="パス_250" data-name="パス 250" d="M442.368,398.053a67,67,0,1,1-67-67,67,67,0,0,1,67,67" transform="translate(246.796 4334)" fill="#a6deeb"/>
    <g id="グループ_167" data-name="グループ 167">
      <path id="線_11" data-name="線 11" d="M0,80.18a1.5,1.5,0,0,1-1.5-1.5V0A1.5,1.5,0,0,1,0-1.5,1.5,1.5,0,0,1,1.5,0V78.68A1.5,1.5,0,0,1,0,80.18Z" transform="translate(582.415 4692.303)" fill="#09f"/>
      <path id="線_12" data-name="線 12" d="M78.68,1.5H0A1.5,1.5,0,0,1-1.5,0,1.5,1.5,0,0,1,0-1.5H78.68A1.5,1.5,0,0,1,80.18,0,1.5,1.5,0,0,1,78.68,1.5Z" transform="translate(583.234 4771.803)" fill="#09f"/>
      <path id="パス_251" data-name="パス 251" d="M337.4,420.925l-1.918-2.307,7.139-5.936,7.238-6.018,1.918,2.307-7.238,6.019Z" transform="translate(246.796 4334)" fill="#09f"/>
      <path id="パス_252" data-name="パス 252" d="M377.2,413.214l-1.412-2.647h0l14.769-7.862,1.41,2.648Z" transform="translate(246.796 4334)" fill="#09f"/>
      <path id="パス_253" data-name="パス 253" d="M369.4,413.753l-13.347-6.292,1.279-2.714,13.347,6.292Z" transform="translate(246.796 4334)" fill="#09f"/>
      <path id="パス_254" data-name="パス 254" d="M406.9,413.637l-5.5-3.737-5.5-3.738,1.686-2.482,5.5,3.738,5.5,3.737Z" transform="translate(246.796 4334)" fill="#09f"/>
      <path id="パス_255" data-name="パス 255" d="M337.43,402.866l-1.985-2.249,6.846-6.041,7.087-6.253,1.985,2.249-7.087,6.253Z" transform="translate(246.796 4334)" fill="#09f"/>
      <path id="パス_256" data-name="パス 256" d="M357.915,385.659l-1.976-2.258,6.557-5.737,6.556-5.737,1.976,2.258-6.557,5.737Z" transform="translate(246.796 4334)" fill="#09f"/>
      <path id="パス_257" data-name="パス 257" d="M398.844,379.144,396.97,376.8l4.1-3.279,4.1-3.278,1.874,2.342-4.1,3.279Z" transform="translate(246.796 4334)" fill="#09f"/>
      <path id="パス_258" data-name="パス 258" d="M389.039,380.955l-6.556-3.278-6.557-3.279,1.342-2.683,6.556,3.278,6.557,3.279Z" transform="translate(246.796 4334)" fill="#09f"/>
      <path id="楕円形_7" data-name="楕円形 7" d="M4.1-1A5.1,5.1,0,1,1-1,4.1,5.1,5.1,0,0,1,4.1-1Zm0,8.2A3.1,3.1,0,1,0,1,4.1,3.1,3.1,0,0,0,4.1,7.2Z" transform="translate(595.528 4716.891)" fill="#09f"/>
      <path id="楕円形_8" data-name="楕円形 8" d="M4.1-1A5.1,5.1,0,1,1-1,4.1,5.1,5.1,0,0,1,4.1-1Zm0,8.2A3.1,3.1,0,1,0,1,4.1,3.1,3.1,0,0,0,4.1,7.2Z" transform="translate(597.167 4734.921)" fill="#09f"/>
      <path id="楕円形_9" data-name="楕円形 9" d="M4.1-1A5.1,5.1,0,1,1-1,4.1,5.1,5.1,0,0,1,4.1-1Zm0,8.2A3.1,3.1,0,1,0,1,4.1,3.1,3.1,0,0,0,4.1,7.2Z" transform="translate(615.198 4743.117)" fill="#09f"/>
      <path id="楕円形_10" data-name="楕円形 10" d="M4.1-1A5.1,5.1,0,1,1-1,4.1,5.1,5.1,0,0,1,4.1-1Zm0,8.2A3.1,3.1,0,1,0,1,4.1,3.1,3.1,0,0,0,4.1,7.2Z" transform="translate(636.507 4733.282)" fill="#09f"/>
      <path id="楕円形_11" data-name="楕円形 11" d="M4.1-1A5.1,5.1,0,1,1-1,4.1,5.1,5.1,0,0,1,4.1-1Zm0,8.2A3.1,3.1,0,1,0,1,4.1,3.1,3.1,0,0,0,4.1,7.2Z" transform="translate(652.899 4744.756)" fill="#09f"/>
      <path id="楕円形_12" data-name="楕円形 12" d="M4.1-1A5.1,5.1,0,1,1-1,4.1,5.1,5.1,0,0,1,4.1-1Zm0,8.2A3.1,3.1,0,1,0,1,4.1,3.1,3.1,0,0,0,4.1,7.2Z" transform="translate(615.198 4700.499)" fill="#09f"/>
      <path id="楕円形_13" data-name="楕円形 13" d="M4.1-1A5.1,5.1,0,1,1-1,4.1,5.1,5.1,0,0,1,4.1-1Zm0,8.2A3.1,3.1,0,1,0,1,4.1,3.1,3.1,0,0,0,4.1,7.2Z" transform="translate(636.507 4710.334)" fill="#09f"/>
      <path id="楕円形_14" data-name="楕円形 14" d="M4.1-1A5.1,5.1,0,1,1-1,4.1,5.1,5.1,0,0,1,4.1-1Zm0,8.2A3.1,3.1,0,1,0,1,4.1,3.1,3.1,0,0,0,4.1,7.2Z" transform="translate(652.899 4698.859)" fill="#09f"/>
    </g>
    <path id="パス_259" data-name="パス 259" d="M558.172,115.143a3.475,3.475,0,0,1-3.259-2.28l-.527-1.447a14.461,14.461,0,0,1-1.8-.021l-.513,1.408a3.469,3.469,0,0,1-4.435,2.072l-3.4-1.238a3.469,3.469,0,0,1-2.07-4.441l.57-1.565q-.672-.531-1.29-1.127l-1.419.82a3.465,3.465,0,0,1-4.732-1.268h0l-1.8-3.126a3.468,3.468,0,0,1,1.266-4.731l1.611-.932c-.1-.515-.186-1.036-.24-1.561l-1.8-.319a3.468,3.468,0,0,1-2.81-4.011l.628-3.557a3.462,3.462,0,0,1,4.011-2.809l2.005.353q.35-.641.753-1.254l-1.285-1.531a3.467,3.467,0,0,1,.428-4.88l2.764-2.321a3.465,3.465,0,0,1,4.881.429l1.361,1.621q.659-.267,1.33-.479V74.888a3.466,3.466,0,0,1,3.463-3.463h3.61a3.467,3.467,0,0,1,3.465,3.463v2.058q.693.219,1.37.5l1.28-1.525a3.464,3.464,0,0,1,4.879-.428h0l2.766,2.32a3.468,3.468,0,0,1,.427,4.881l-1.22,1.453q.437.663.807,1.351l1.782-.315a3.462,3.462,0,0,1,4.012,2.805v0l.627,3.558a3.463,3.463,0,0,1-2.811,4.011h0l-1.677.295q-.1.855-.274,1.686l1.4.808a3.464,3.464,0,0,1,1.267,4.731l-1.8,3.126a3.462,3.462,0,0,1-4.731,1.267h0l-1.356-.783a17.709,17.709,0,0,1-1.372,1.152l.515,1.413a3.463,3.463,0,0,1-2.068,4.439h0l-3.392,1.235a3.434,3.434,0,0,1-1.183.21m-3.038-5.974a1.094,1.094,0,0,1,1.025.72l.811,2.227a1.281,1.281,0,0,0,1.2.838,1.253,1.253,0,0,0,.433-.079l3.394-1.234A1.276,1.276,0,0,0,562.75,110h0l-.8-2.19a1.1,1.1,0,0,1,.41-1.277,15.585,15.585,0,0,0,2.347-1.974,1.094,1.094,0,0,1,1.33-.186l2.077,1.2a1.276,1.276,0,0,0,1.742-.465h0l1.806-3.127a1.275,1.275,0,0,0-.466-1.74l-2.107-1.217a1.1,1.1,0,0,1-.51-1.229,15.4,15.4,0,0,0,.48-2.948,1.094,1.094,0,0,1,.9-1.006l2.5-.441a1.275,1.275,0,0,0,1.037-1.475v0l-.627-3.558a1.276,1.276,0,0,0-.529-.826,1.256,1.256,0,0,0-.946-.208l-2.585.456a1.1,1.1,0,0,1-1.178-.607,15.472,15.472,0,0,0-1.468-2.46,1.094,1.094,0,0,1,.046-1.347l1.757-2.093a1.278,1.278,0,0,0-.158-1.8l-2.766-2.319a1.273,1.273,0,0,0-1.8.156l-1.791,2.157a1.094,1.094,0,0,1-1.3.289,15.486,15.486,0,0,0-2.594-.932,1.093,1.093,0,0,1-.816-1.059V74.891a1.277,1.277,0,0,0-1.276-1.275h-3.61a1.276,1.276,0,0,0-1.275,1.275v2.882a1.094,1.094,0,0,1-.818,1.059,15.456,15.456,0,0,0-2.556.919,1.1,1.1,0,0,1-1.3-.291l-1.885-2.246a1.277,1.277,0,0,0-1.8-.159l-2.765,2.322a1.279,1.279,0,0,0-.157,1.8l1.821,2.17a1.094,1.094,0,0,1,.045,1.35,15.468,15.468,0,0,0-1.425,2.365,1.093,1.093,0,0,1-1.174.6l-2.794-.493A1.277,1.277,0,0,0,534.3,88.2l-.627,3.556a1.276,1.276,0,0,0,1.035,1.476l2.634.466a1.094,1.094,0,0,1,.9,1.013,15.463,15.463,0,0,0,.433,2.837,1.092,1.092,0,0,1-.514,1.21l-2.307,1.332a1.277,1.277,0,0,0-.465,1.742l1.8,3.128a1.276,1.276,0,0,0,1.743.465l2.148-1.241a1.1,1.1,0,0,1,1.344.2,15.59,15.59,0,0,0,2.253,1.972,1.094,1.094,0,0,1,.39,1.264l-.847,2.328a1.277,1.277,0,0,0,.763,1.635l3.393,1.236a1.281,1.281,0,0,0,1.634-.763l.8-2.2a1.091,1.091,0,0,1,1.157-.712,13.012,13.012,0,0,0,3.049.035c.037,0,.073-.006.108-.006m-1.541-6.849a9.034,9.034,0,1,1,9.034-9.034,9.034,9.034,0,0,1-9.034,9.034m0-15.878a6.845,6.845,0,1,0,6.844,6.846,6.845,6.845,0,0,0-6.844-6.846" transform="translate(246.796 4334)" fill="#09f"/>
    <path id="パス_260" data-name="パス 260" d="M527.554,99.565h-.018A48.942,48.942,0,0,1,517,98.309a16.985,16.985,0,0,1-9.362-6.614,13.161,13.161,0,0,1-2.079-4.925,11.262,11.262,0,0,1,2.9-9.949,13.161,13.161,0,0,1,4.4-3.036,16.986,16.986,0,0,1,11.45-.547,30.518,30.518,0,0,1,5.976,3.036,1.5,1.5,0,1,1-1.629,2.519,27.2,27.2,0,0,0-5.187-2.676c-6.6-1.925-13.241.84-14.793,6.163s2.558,11.222,9.163,13.148a46.769,46.769,0,0,0,9.733,1.136,1.5,1.5,0,0,1-.017,3Z" transform="translate(246.796 4334)" fill="#09f"/>
    <path id="パス_261" data-name="パス 261" d="M520.786,75.582a1.5,1.5,0,0,1-1.434-1.062,8.229,8.229,0,0,1,6.924-10.854,11.749,11.749,0,0,1,7.75,1.674,13.851,13.851,0,0,1,4.108,3.983,1.5,1.5,0,0,1-2.532,1.609,10.913,10.913,0,0,0-3.13-3.026c-3.655-2.213-8.057-1.655-9.813,1.243a5.479,5.479,0,0,0-.437,4.495,1.5,1.5,0,0,1-1.435,1.938Z" transform="translate(246.796 4334)" fill="#09f"/>
    <path id="パス_262" data-name="パス 262" d="M549.9,66.969a1.5,1.5,0,0,1-1.441-1.087,15.339,15.339,0,0,0-1.675-3.779,11.792,11.792,0,0,0-4.976-4.592,13.936,13.936,0,0,0-7.9-1.064,10.065,10.065,0,0,0-3.456,1.182,5.7,5.7,0,0,0-2.177,2.15,6.66,6.66,0,0,0-.438,4.676,1.5,1.5,0,1,1-2.934.628,9.675,9.675,0,0,1,.741-6.746c1.394-2.543,4.159-4.266,7.786-4.851A16.81,16.81,0,0,1,543.1,54.8c5.545,2.633,7.616,8.048,8.249,10.255a1.5,1.5,0,0,1-1.443,1.914Z" transform="translate(246.796 4334)" fill="#09f"/>
    <path id="パス_263" data-name="パス 263" d="M575.05,61.381a1.5,1.5,0,0,1-1.415-1,8,8,0,0,0-12.585-3.954A1.5,1.5,0,0,1,559,56.186,9.045,9.045,0,0,0,552.632,53a9.3,9.3,0,0,0-7.164,3.189,1.5,1.5,0,1,1-2.3-1.926,12.221,12.221,0,0,1,9.6-4.261,11.946,11.946,0,0,1,7.6,3.286,12.107,12.107,0,0,1,1.683-.8,10.743,10.743,0,0,1,5.8-.6,11.331,11.331,0,0,1,8.606,7.5,1.5,1.5,0,0,1-1.415,2Z" transform="translate(246.796 4334)" fill="#09f"/>
    <path id="パス_264" data-name="パス 264" d="M575.982,78.145a1.5,1.5,0,0,1-.622-2.866c.054-.025,5.383-2.511,5.643-7.1a5.659,5.659,0,0,0-1.44-4.457,6.048,6.048,0,0,0-5.151-1.437c-2.674.527-4.815,3.026-5.331,6.218a1.5,1.5,0,0,1-2.962-.479c.716-4.425,3.814-7.915,7.71-8.682.482-.1,4.826-.854,7.884,2.287A8.572,8.572,0,0,1,584,68.344c-.362,6.392-7.108,9.535-7.4,9.666A1.5,1.5,0,0,1,575.982,78.145Z" transform="translate(246.796 4334)" fill="#09f"/>
    <path id="パス_265" data-name="パス 265" d="M593.678,76.282a1.5,1.5,0,0,1-1.489-1.7,7.352,7.352,0,0,0-2.295-6.125,7.261,7.261,0,0,0-6.127-1.53,1.5,1.5,0,1,1-.671-2.924,10.49,10.49,0,0,1,3.155-.174A9.815,9.815,0,0,1,591.87,66.2a10.336,10.336,0,0,1,3.293,8.775A1.5,1.5,0,0,1,593.678,76.282Z" transform="translate(246.796 4334)" fill="#09f"/>
    <path id="パス_266" data-name="パス 266" d="M585.056,101.416h-.2a23.058,23.058,0,0,1-6.554-1,1.5,1.5,0,1,1,.945-2.847,20.132,20.132,0,0,0,5.636.843h.179a13.623,13.623,0,0,0,9.469-3.326c1.883-1.7,4.93-5.247,4.183-9.823a9.552,9.552,0,0,0-5.607-7.234,9.368,9.368,0,0,0-6.442-.137,11.55,11.55,0,0,0-5.739,4.276,1.5,1.5,0,1,1-2.441-1.744,14.569,14.569,0,0,1,7.249-5.384,12.367,12.367,0,0,1,8.508.212,11.993,11.993,0,0,1,5.019,3.912,12.806,12.806,0,0,1,2.414,5.616,11.77,11.77,0,0,1-.209,4.8,13.774,13.774,0,0,1-1.607,3.777,17.817,17.817,0,0,1-3.315,3.955,15.351,15.351,0,0,1-5.913,3.316A19.247,19.247,0,0,1,585.056,101.416Z" transform="translate(246.796 4334)" fill="#09f"/>
    <path id="パス_267" data-name="パス 267" d="M516.377,66.969a1.494,1.494,0,0,1-.987-.371l-7.231-6.328-.219-.191a1.5,1.5,0,0,1-.512-1.129v-14.9a1.5,1.5,0,0,1,3,0v14.22l6.938,6.071a1.5,1.5,0,0,1-.988,2.629Z" transform="translate(246.796 4334)" fill="#09f"/>
    <path id="パス_268" data-name="パス 268" d="M509.1,30.9a4.24,4.24,0,1,1-4.241,4.24A4.245,4.245,0,0,1,509.1,30.9Zm0,6.48a2.24,2.24,0,1,0-2.241-2.24A2.243,2.243,0,0,0,509.1,37.375Z" transform="translate(246.796 4334)" fill="#09f"/>
    <path id="パス_269" data-name="パス 269" d="M522.136,18.788a4.24,4.24,0,1,1-4.241,4.24A4.245,4.245,0,0,1,522.136,18.788Zm0,6.48a2.24,2.24,0,1,0-2.241-2.24A2.243,2.243,0,0,0,522.136,25.268Z" transform="translate(246.796 4334)" fill="#09f"/>
    <path id="パス_270" data-name="パス 270" d="M538.9,29.032a4.24,4.24,0,1,1-4.24,4.24A4.245,4.245,0,0,1,538.9,29.032Zm0,6.48a2.24,2.24,0,1,0-2.24-2.24A2.243,2.243,0,0,0,538.9,35.512Z" transform="translate(246.796 4334)" fill="#09f"/>
    <path id="パス_271" data-name="パス 271" d="M553.8,17.857a4.24,4.24,0,1,1-4.241,4.24A4.245,4.245,0,0,1,553.8,17.857Zm0,6.48a2.24,2.24,0,1,0-2.241-2.24A2.243,2.243,0,0,0,553.8,24.337Z" transform="translate(246.796 4334)" fill="#09f"/>
    <path id="パス_272" data-name="パス 272" d="M567.77,29.032a4.24,4.24,0,1,1-4.241,4.24A4.245,4.245,0,0,1,567.77,29.032Zm0,6.48a2.24,2.24,0,1,0-2.241-2.24A2.243,2.243,0,0,0,567.77,35.512Z" transform="translate(246.796 4334)" fill="#09f"/>
    <path id="パス_273" data-name="パス 273" d="M584.533,18.788a4.24,4.24,0,1,1-4.241,4.24A4.245,4.245,0,0,1,584.533,18.788Zm0,6.48a2.24,2.24,0,1,0-2.241-2.24A2.243,2.243,0,0,0,584.533,25.268Z" transform="translate(246.796 4334)" fill="#09f"/>
    <path id="パス_274" data-name="パス 274" d="M597.571,30.9a4.24,4.24,0,1,1-4.241,4.24A4.245,4.245,0,0,1,597.571,30.9Zm0,6.48a2.24,2.24,0,1,0-2.241-2.24A2.243,2.243,0,0,0,597.571,37.375Z" transform="translate(246.796 4334)" fill="#09f"/>
    <path id="パス_275" data-name="パス 275" d="M526.158,54.828a1,1,0,0,1-.781-.375l-3.025-3.782-.7-.876a1,1,0,0,1-.219-.625V30.545a1,1,0,1,1,2,0V48.82l.481.6,3.024,3.781a1,1,0,0,1-.78,1.625Z" transform="translate(246.796 4334)" fill="#09f"/>
    <path id="線_13" data-name="線 13" d="M0,9.382a1,1,0,0,1-1-1V0A1,1,0,0,1,0-1,1,1,0,0,1,1,0V8.382A1,1,0,0,1,0,9.382Z" transform="translate(785.991 4374.79)" fill="#09f"/>
    <path id="線_14" data-name="線 14" d="M0,16.859a1,1,0,0,1-1-1V0A1,1,0,0,1,0-1,1,1,0,0,1,1,0V15.859A1,1,0,0,1,0,16.859Z" transform="translate(799.961 4364.519)" fill="#09f"/>
    <path id="線_15" data-name="線 15" d="M0,7.519a1,1,0,0,1-1-1V0A1,1,0,0,1,0-1,1,1,0,0,1,1,0V6.519A1,1,0,0,1,0,7.519Z" transform="translate(813.93 4374.79)" fill="#09f"/>
    <path id="パス_276" data-name="パス 276" d="M581.1,54.828a1,1,0,0,1-.707-1.707l1.3-1.3,2.129-2.129V30.545a1,1,0,1,1,2,0V50.1a1,1,0,0,1-.293.707l-2.423,2.423-1.3,1.3A1,1,0,0,1,581.1,54.828Z" transform="translate(246.796 4334)" fill="#09f"/>
    <path id="パス_277" data-name="パス 277" d="M593.21,64.141a1,1,0,0,1-.707-1.707L595.935,59V43.584a1,1,0,0,1,2,0V59.416a1,1,0,0,1-.293.707l-3.725,3.725A1,1,0,0,1,593.21,64.141Z" transform="translate(246.796 4334)" fill="#09f"/>
    <path id="パス_278" data-name="パス 278" d="M797.682,251a6.7,6.7,0,0,1,1.128-3.4,5.367,5.367,0,0,1,3.952-1.608A4.587,4.587,0,0,1,808.3,251a4.969,4.969,0,0,1-.159,1.645,6.155,6.155,0,0,1-1.112,1.875,4.972,4.972,0,0,1-1.068,1.126c-1.585,1.085-3.949.093-5.562,1.136-.505.327-.878.823-1.358,1.186-.367.279-1.194.661-1.629.292s-.234-1.577-.228-2.079a41.8,41.8,0,0,1,.5-5.177" transform="translate(246.796 4334)" fill="#09f"/>
    <path id="パス_278_-_アウトライン" data-name="パス 278 - アウトライン" d="M797.875,258.911a1.2,1.2,0,0,1-.789-.271c-.531-.449-.468-1.418-.422-2.126.009-.137.017-.255.018-.34a42.185,42.185,0,0,1,.5-5.217l0-.023a7.163,7.163,0,0,1,1.236-3.652,5.706,5.706,0,0,1,4.312-1.791c.188-.01.375-.015.556-.015a5.527,5.527,0,0,1,3.984,1.338,5.884,5.884,0,0,1,1.521,4.166,5.437,5.437,0,0,1-.181,1.81,6.6,6.6,0,0,1-1.193,2.032,4.18,4.18,0,0,1-4.257,1.906,4.738,4.738,0,0,0-2.5.472,4.645,4.645,0,0,0-.684.589,6.815,6.815,0,0,1-.644.576A2.656,2.656,0,0,1,797.875,258.911Zm-.141-1.032a.248.248,0,0,0,.141.032,1.719,1.719,0,0,0,.861-.342,5.962,5.962,0,0,0,.55-.495,5.463,5.463,0,0,1,.839-.713,5.53,5.53,0,0,1,3.024-.632,3.25,3.25,0,0,0,3.481-1.515,5.759,5.759,0,0,0,1.031-1.717,4.532,4.532,0,0,0,.137-1.481,4.948,4.948,0,0,0-1.217-3.483,4.583,4.583,0,0,0-3.289-1.057c-.163,0-.332,0-.5.014a4.992,4.992,0,0,0-3.592,1.425,6.311,6.311,0,0,0-1.02,3.156l0,.023a41.453,41.453,0,0,0-.493,5.092c0,.111-.01.242-.02.393A3.345,3.345,0,0,0,797.734,257.879Z" transform="translate(246.796 4334)" fill="rgba(0,0,0,0)"/>
    <path id="パス_279" data-name="パス 279" d="M805.9,242.987a.977.977,0,0,1-.273-.49,1.024,1.024,0,0,1,.177-.6,64.861,64.861,0,0,1,6.489-9.208l4.392-5.523c1.2-1.512,2.4-3.023,3.662-4.486a61.156,61.156,0,0,1,5.859-5.981,53.536,53.536,0,0,1-3.025,7.037c-3.56,7.3-7.115,15.168-12.487,21.317-.742.85-1.445.382-2.351-.11a8.8,8.8,0,0,1-2.443-1.956" transform="translate(246.796 4334)" fill="#09f"/>
    <path id="パス_279_-_アウトライン" data-name="パス 279 - アウトライン" d="M809.8,246.023a3.314,3.314,0,0,1-1.536-.552l-.162-.089a9.247,9.247,0,0,1-2.582-2.067,1.245,1.245,0,0,1-.157-1.658,65.385,65.385,0,0,1,6.536-9.279l4.392-5.523c1.179-1.483,2.4-3.017,3.674-4.5a61.149,61.149,0,0,1,5.907-6.03l1.362-1.2-.555,1.73a54.088,54.088,0,0,1-3.052,7.1c-.344.705-.695,1.429-1.034,2.13-3.259,6.731-6.629,13.692-11.526,19.3A1.661,1.661,0,0,1,809.8,246.023Zm15.246-27.585c-1.45,1.38-2.876,2.887-4.323,4.568-1.263,1.469-2.476,2.995-3.65,4.471L812.683,233a64.627,64.627,0,0,0-6.441,9.136.865.865,0,0,0-.12.3.79.79,0,0,0,.155.226,8.25,8.25,0,0,0,2.3,1.844l.167.091a2.7,2.7,0,0,0,1.055.429c.118,0,.283-.034.514-.3,4.808-5.5,8.149-12.4,11.379-19.075.339-.7.69-1.426,1.035-2.132C823.535,221.867,824.36,220.176,825.048,218.438Z" transform="translate(246.796 4334)" fill="rgba(0,0,0,0)"/>
    <path id="パス_280" data-name="パス 280" d="M810.023,246.812a.864.864,0,0,1-.485-.149l-5.119-3.459a.866.866,0,0,1-.233-1.2.61.61,0,0,1,.037-.051l21.623-27.456a1.415,1.415,0,0,1,2.418,1.47c-.024.039-.049.075-.075.111l-17.414,30.3a.864.864,0,0,1-.557.416.809.809,0,0,1-.2.023m-3.861-4.523,3.574,2.413,14.785-25.725Z" transform="translate(246.796 4334)" fill="#09f"/>
    <path id="パス_281" data-name="パス 281" d="M798.175,259.452a1.937,1.937,0,0,1-.716-.143,2.148,2.148,0,0,1-1.36-2.1l.506-7.344a4.443,4.443,0,0,1,.749-2.171,6.559,6.559,0,0,1,8.93-1.963,6.431,6.431,0,0,1,1.911,8.893c-.021.034-.044.067-.067.1l-.112.167a6.468,6.468,0,0,1-5.023,2.249,3.867,3.867,0,0,0-3.5,1.693,1.683,1.683,0,0,1-1.309.621m4.7-12.992a4.945,4.945,0,0,0-4.085,2.2,2.689,2.689,0,0,0-.454,1.322l-.505,7.344a.382.382,0,0,0,.125.273.42.42,0,0,0,.2.117,5.582,5.582,0,0,1,4.832-2.312h.109a3.822,3.822,0,0,0,.442-.017,4.707,4.707,0,0,0,3.039-1.471l.11-.166a4.7,4.7,0,0,0-1.279-6.521c-.023-.016-.047-.032-.072-.047a4.5,4.5,0,0,0-2.465-.722" transform="translate(246.796 4334)" fill="#09f"/>
    <path id="長方形_158" data-name="長方形 158" d="M2.145-1.5h80.79A3.649,3.649,0,0,1,86.58,2.145V58.421a3.649,3.649,0,0,1-3.645,3.645H2.145A3.649,3.649,0,0,1-1.5,58.421V2.145A3.649,3.649,0,0,1,2.145-1.5Zm80.79,60.566a.646.646,0,0,0,.645-.645V2.145a.646.646,0,0,0-.645-.645H2.145a.646.646,0,0,0-.645.645V58.421a.646.646,0,0,0,.645.645Z" transform="translate(997.608 4539.186)" fill="#09f"/>
    <path id="パス_282" data-name="パス 282" d="M778.727,242.355a.92.92,0,0,1,.862.606l.683,1.873a1.066,1.066,0,0,0,1.373.64l2.856-1.039a1.073,1.073,0,0,0,.642-1.375h0l-.671-1.843a.919.919,0,0,1,.345-1.074,13.164,13.164,0,0,0,1.975-1.661.92.92,0,0,1,1.119-.156l1.747,1.008a1.073,1.073,0,0,0,1.466-.391h0l1.52-2.631a1.073,1.073,0,0,0-.392-1.464l-1.773-1.024a.921.921,0,0,1-.429-1.035,12.917,12.917,0,0,0,.4-2.48.92.92,0,0,1,.758-.846l2.1-.372a1.073,1.073,0,0,0,.873-1.241v0l-.527-2.993a1.07,1.07,0,0,0-.445-.695,1.052,1.052,0,0,0-.8-.175l-2.175.383a.92.92,0,0,1-.991-.511,13.04,13.04,0,0,0-1.236-2.069.922.922,0,0,1,.039-1.134l1.478-1.761a1.074,1.074,0,0,0-.132-1.513l-2.328-1.952a1.074,1.074,0,0,0-1.511.132l-1.507,1.815a.922.922,0,0,1-1.1.243,12.99,12.99,0,0,0-2.182-.784.919.919,0,0,1-.687-.891v-2.424a1.075,1.075,0,0,0-1.074-1.073H775.98a1.074,1.074,0,0,0-1.073,1.073v2.425a.921.921,0,0,1-.688.891,12.917,12.917,0,0,0-2.151.773.922.922,0,0,1-1.091-.245l-1.586-1.89a1.074,1.074,0,0,0-1.513-.133l-2.327,1.953a1.076,1.076,0,0,0-.132,1.512l1.533,1.827a.921.921,0,0,1,.038,1.135,13.029,13.029,0,0,0-1.2,1.991.918.918,0,0,1-.988.5l-2.351-.414a1.073,1.073,0,0,0-1.243.871l-.528,2.992a1.073,1.073,0,0,0,.871,1.242l2.216.392a.921.921,0,0,1,.759.853,13.015,13.015,0,0,0,.364,2.387.922.922,0,0,1-.432,1.019l-1.942,1.12a1.075,1.075,0,0,0-.391,1.466l1.518,2.632a1.075,1.075,0,0,0,1.467.392l1.807-1.045a.92.92,0,0,1,1.131.166,13.071,13.071,0,0,0,1.9,1.659.921.921,0,0,1,.328,1.064l-.713,1.959a1.075,1.075,0,0,0,.642,1.376l2.856,1.04a1.078,1.078,0,0,0,1.374-.643l.675-1.854a.919.919,0,0,1,.974-.6,10.957,10.957,0,0,0,2.566.029c.03,0,.061,0,.09,0" transform="translate(246.796 4334)" fill="#09f"/>
    <path id="パス_282_-_アウトライン" data-name="パス 282 - アウトライン" d="M781.282,246.04h0a1.582,1.582,0,0,1-1.478-1.034l-.683-1.873a.422.422,0,0,0-.383-.277v0h-.011l-.047,0a11.474,11.474,0,0,1-2.662-.032.416.416,0,0,0-.44.274l-.675,1.854a1.582,1.582,0,0,1-2.012.943l-2.859-1.041a1.578,1.578,0,0,1-.941-2.016l.713-1.96a.423.423,0,0,0-.15-.487,13.6,13.6,0,0,1-1.968-1.722.418.418,0,0,0-.517-.076l-1.807,1.045a1.578,1.578,0,0,1-2.15-.574l-1.518-2.633a1.578,1.578,0,0,1,.573-2.148l1.944-1.121a.423.423,0,0,0,.2-.465,13.551,13.551,0,0,1-.378-2.479.421.421,0,0,0-.348-.39l-2.215-.392a1.576,1.576,0,0,1-1.276-1.82l.528-2.993a1.573,1.573,0,0,1,1.822-1.277l2.351.414a.421.421,0,0,0,.451-.229,13.575,13.575,0,0,1,1.247-2.069.42.42,0,0,0-.017-.518l-1.533-1.827a1.579,1.579,0,0,1,.192-2.215l2.328-1.954a1.577,1.577,0,0,1,2.217.195l1.586,1.89a.424.424,0,0,0,.5.112,13.454,13.454,0,0,1,2.232-.8.421.421,0,0,0,.315-.407v-2.425a1.578,1.578,0,0,1,1.572-1.573h3.038a1.577,1.577,0,0,1,1.574,1.572v2.425a.42.42,0,0,0,.314.407,13.521,13.521,0,0,1,2.266.814.423.423,0,0,0,.5-.111l1.506-1.813a1.576,1.576,0,0,1,2.217-.2l2.328,1.952a1.578,1.578,0,0,1,.194,2.217l-1.478,1.761a.421.421,0,0,0-.018.518,13.567,13.567,0,0,1,1.283,2.148.422.422,0,0,0,.453.234l2.175-.383a1.559,1.559,0,0,1,1.171.259,1.577,1.577,0,0,1,.649,1.018l.528,2.995a1.575,1.575,0,0,1-1.28,1.82l-2.1.372a.419.419,0,0,0-.346.386,13.44,13.44,0,0,1-.42,2.576.423.423,0,0,0,.2.474l1.773,1.024a1.577,1.577,0,0,1,.575,2.146l-1.521,2.633a1.573,1.573,0,0,1-2.149.573l-1.746-1.008a.419.419,0,0,0-.51.071,13.7,13.7,0,0,1-2.051,1.725.419.419,0,0,0-.158.49l.7,1.926v.01a1.575,1.575,0,0,1-.972,1.924l-2.855,1.039a1.563,1.563,0,0,1-.531.1Zm-2.554-4.185a1.425,1.425,0,0,1,1.331.935l.683,1.873a.567.567,0,0,0,.73.342l2.859-1.04a.574.574,0,0,0,.343-.735L784,241.387a1.418,1.418,0,0,1,.533-1.658,12.69,12.69,0,0,0,1.9-1.6,1.418,1.418,0,0,1,1.726-.24l1.748,1.008a.573.573,0,0,0,.772-.19l.011-.019,1.52-2.631a.575.575,0,0,0-.21-.781l-1.772-1.023a1.425,1.425,0,0,1-.662-1.6,12.446,12.446,0,0,0,.388-2.384,1.416,1.416,0,0,1,1.17-1.306l2.1-.372a.574.574,0,0,0,.471-.64l0-.024-.527-2.993a.574.574,0,0,0-.238-.371.557.557,0,0,0-.421-.094l-2.178.384a1.424,1.424,0,0,1-1.529-.789,12.566,12.566,0,0,0-1.188-1.989,1.42,1.42,0,0,1,.059-1.75l1.479-1.762a.576.576,0,0,0-.071-.809l-2.327-1.951a.574.574,0,0,0-.807.071l-1.505,1.813a1.424,1.424,0,0,1-1.693.377,12.514,12.514,0,0,0-2.1-.753,1.419,1.419,0,0,1-1.06-1.376v-2.423a.575.575,0,0,0-.574-.573H775.98a.576.576,0,0,0-.573.574v2.424a1.422,1.422,0,0,1-1.061,1.375,12.46,12.46,0,0,0-2.067.743,1.427,1.427,0,0,1-1.684-.377l-1.586-1.89a.575.575,0,0,0-.809-.071l-2.327,1.953a.577.577,0,0,0-.07.808l1.533,1.827a1.417,1.417,0,0,1,.059,1.751,12.572,12.572,0,0,0-1.154,1.915,1.424,1.424,0,0,1-1.525.777l-2.35-.414a.573.573,0,0,0-.664.465l-.528,2.992a.574.574,0,0,0,.466.663l2.216.392a1.418,1.418,0,0,1,1.171,1.316,12.548,12.548,0,0,0,.35,2.3,1.429,1.429,0,0,1-.666,1.572l-1.944,1.121a.576.576,0,0,0-.208.783l1.518,2.632a.576.576,0,0,0,.784.209l1.806-1.045a1.414,1.414,0,0,1,1.746.257,12.605,12.605,0,0,0,1.823,1.6,1.426,1.426,0,0,1,.506,1.642l-.713,1.958a.576.576,0,0,0,.344.736l2.855,1.04a.578.578,0,0,0,.734-.346l.674-1.853a1.414,1.414,0,0,1,1.5-.924,10.482,10.482,0,0,0,2.453.028l.026,0h.039l.07,0Z" transform="translate(246.796 4334)" fill="rgba(0,0,0,0)"/>
    <path id="パス_283" data-name="パス 283" d="M777.4,223.55a5.76,5.76,0,1,0,5.759,5.761,5.761,5.761,0,0,0-5.759-5.761" transform="translate(246.796 4334)" fill="#a6deeb"/>
    <path id="パス_284" data-name="パス 284" d="M807.716,280.207H779.581l.466-1.864,1.442-5.768,1.442-5.768,2.911.727L784.4,273.3l-.976,3.9h20.895q-.616-4.925-1.231-9.85l2.977-.372q.72,5.767,1.442,11.536Z" transform="translate(246.796 4334)" fill="#09f"/>
    <path id="線_16" data-name="線 16" d="M42.54,1.5H0A1.5,1.5,0,0,1-1.5,0,1.5,1.5,0,0,1,0-1.5H42.54A1.5,1.5,0,0,1,44.04,0,1.5,1.5,0,0,1,42.54,1.5Z" transform="translate(1018.925 4613.428)" fill="#09f"/>
    <path id="楕円形_15" data-name="楕円形 15" d="M43.5-1.5A45.011,45.011,0,0,1,61.016,84.963,45.011,45.011,0,0,1,25.984,2.037,44.72,44.72,0,0,1,43.5-1.5Zm0,87A42.011,42.011,0,0,0,59.848,4.8a42.011,42.011,0,0,0-32.7,77.4A41.736,41.736,0,0,0,43.5,85.5Z" transform="translate(334.728 4485.236)" fill="#09f"/>
    <path id="パス_285" data-name="パス 285" d="M130.3,136.512l-3.734,4.208a1.513,1.513,0,0,0,1.132,2.517h7.467a1.513,1.513,0,0,0,1.132-2.517l-3.734-4.208a1.513,1.513,0,0,0-2.263,0" transform="translate(246.796 4334)" fill="#09f"/>
    <path id="パス_347" data-name="パス 347" d="M0,0H3V7H0Z" transform="translate(376.729 4477.236)" fill="#09f"/>
    <path id="パス_286" data-name="パス 286" d="M130.3,252.728l-3.734-4.208A1.513,1.513,0,0,1,127.7,246h7.467a1.513,1.513,0,0,1,1.132,2.517l-3.734,4.208a1.513,1.513,0,0,1-2.263,0" transform="translate(246.796 4334)" fill="#09f"/>
    <path id="パス_348" data-name="パス 348" d="M0,0H3V7H0Z" transform="translate(376.729 4573.003)" fill="#09f"/>
    <path id="パス_287" data-name="パス 287" d="M180.931,164.218l-5.536-1a1.512,1.512,0,0,0-1.562,2.274l3.882,6.38a1.513,1.513,0,0,0,2.738-.342l1.654-5.377a1.513,1.513,0,0,0-1.176-1.933" transform="translate(246.796 4334)" fill="#09f"/>
    <path id="パス_349" data-name="パス 349" d="M0,0H7V3H0Z" transform="matrix(0.854, -0.52, 0.52, 0.854, 415.811, 4505.037)" fill="#09f"/>
    <path id="パス_288" data-name="パス 288" d="M183.107,222.088l-1.654-5.377a1.512,1.512,0,0,0-2.738-.341l-3.882,6.379a1.513,1.513,0,0,0,1.562,2.275l5.536-1a1.512,1.512,0,0,0,1.176-1.933" transform="translate(246.796 4334)" fill="#09f"/>
    <path id="パス_350" data-name="パス 350" d="M0,0H3V7H0Z" transform="translate(416.81 4551.202) rotate(-58.689)" fill="#09f"/>
    <path id="パス_289" data-name="パス 289" d="M80.081,223.088l1.654-5.377a1.512,1.512,0,0,1,2.738-.341l3.882,6.379a1.513,1.513,0,0,1-1.562,2.275l-5.536-1a1.512,1.512,0,0,1-1.176-1.933" transform="translate(246.796 4334)" fill="#09f"/>
    <path id="パス_345" data-name="パス 345" d="M0,0H7V3H0Z" transform="matrix(0.854, -0.52, 0.52, 0.854, 332.432, 4553.277)" fill="#09f"/>
    <path id="パス_290" data-name="パス 290" d="M81.258,164.218l5.536-1a1.512,1.512,0,0,1,1.562,2.274l-3.882,6.38a1.513,1.513,0,0,1-2.738-.342l-1.654-5.377a1.513,1.513,0,0,1,1.176-1.933" transform="translate(246.796 4334)" fill="#09f"/>
    <path id="パス_346" data-name="パス 346" d="M0,0H3V7H0Z" transform="matrix(0.52, -0.854, 0.854, 0.52, 332.431, 4503.962)" fill="#09f"/>
    <path id="長方形_165" data-name="長方形 165" d="M3.266-1.5H26.734A4.771,4.771,0,0,1,31.5,3.266V50.733A4.772,4.772,0,0,1,26.733,55.5H3.266A4.771,4.771,0,0,1-1.5,50.734V3.266A4.771,4.771,0,0,1,3.266-1.5Zm23.467,54A1.769,1.769,0,0,0,28.5,50.733V3.266A1.768,1.768,0,0,0,26.734,1.5H3.266A1.768,1.768,0,0,0,1.5,3.266V50.734A1.768,1.768,0,0,0,3.266,52.5Z" transform="translate(363.39 4501.928)" fill="#09f"/>
    <path id="線_17" data-name="線 17" d="M28,1.5H0v-3H28Z" transform="translate(364.391 4508.928)" fill="#09f"/>
    <path id="線_18" data-name="線 18" d="M28,1.5H0v-3H28Z" transform="translate(364.391 4544.928)" fill="#09f"/>
    <path id="楕円形_16" data-name="楕円形 16" d="M2.636-1A3.636,3.636,0,1,1-1,2.636,3.64,3.64,0,0,1,2.636-1Zm0,5.272A1.636,1.636,0,1,0,1,2.636,1.638,1.638,0,0,0,2.636,4.272Z" transform="translate(375.755 4547.64)" fill="#09f"/>
    <path id="線_19" data-name="線 19" d="M7,1H0A1,1,0,0,1-1,0,1,1,0,0,1,0-1H7A1,1,0,0,1,8,0,1,1,0,0,1,7,1Z" transform="translate(374.891 4505.428)" fill="#09f"/>
  </g>
</svg>
