<svg xmlns="http://www.w3.org/2000/svg" xmlns:xlink="http://www.w3.org/1999/xlink" width="232" height="232" viewBox="0 0 232 232">
  <defs>
    <clipPath id="clip-path">
      <rect id="長方形_73" data-name="長方形 73" width="140.231" height="157.836" fill="none"/>
    </clipPath>
  </defs>
  <g id="グループ_181" data-name="グループ 181" transform="translate(-812 -211)">
    <path id="パス_245" data-name="パス 245" d="M116,0A116,116,0,1,1,0,116,116,116,0,0,1,116,0Z" transform="translate(812 211)" fill="#a6deeb"/>
    <g id="グループ_95" data-name="グループ 95" transform="translate(858.642 248.04)">
      <g id="グループ_49" data-name="グループ 49" transform="translate(0 0)" clip-path="url(#clip-path)">
        <path id="パス_196" data-name="パス 196" d="M98.4,100.988H20.162A1.244,1.244,0,0,1,18.9,99.726a1.161,1.161,0,0,1,1.262-1.262H98.4a1.262,1.262,0,0,1,0,2.524" transform="translate(10.912 56.848)" fill="#09f"/>
        <path id="パス_197" data-name="パス 197" d="M131.867,103.721H8.518A8.482,8.482,0,0,1,0,95.2V28.482a8.482,8.482,0,0,1,8.518-8.518H131.709a8.482,8.482,0,0,1,8.518,8.518V95.046a8.485,8.485,0,0,1-8.36,8.675M8.518,22.33a6.159,6.159,0,0,0-6.152,6.152V95.046A6.159,6.159,0,0,0,8.518,101.2H131.709a6.159,6.159,0,0,0,6.152-6.152V28.482a6.159,6.159,0,0,0-6.152-6.152Z" transform="translate(0 11.526)" fill="#09f"/>
        <path id="パス_198" data-name="パス 198" d="M36.562,116.4a1.244,1.244,0,0,1-1.262-1.262V73.026a1.262,1.262,0,1,1,2.524,0v42.115a1.244,1.244,0,0,1-1.262,1.262" transform="translate(20.381 41.433)" fill="#09f"/>
        <path id="パス_199" data-name="パス 199" d="M53.362,116.4a1.244,1.244,0,0,1-1.262-1.262V73.026a1.262,1.262,0,1,1,2.524,0v42.115a1.357,1.357,0,0,1-1.262,1.262" transform="translate(30.08 41.433)" fill="#09f"/>
        <path id="パス_200" data-name="パス 200" d="M93.146,30.988H66.962a1.262,1.262,0,1,1,0-2.524H93.146a1.244,1.244,0,0,1,1.262,1.262,1.357,1.357,0,0,1-1.262,1.262" transform="translate(37.932 16.434)" fill="#09f"/>
        <path id="パス_201" data-name="パス 201" d="M93.146,37.088H66.962A1.244,1.244,0,0,1,65.7,35.826a1.161,1.161,0,0,1,1.262-1.262H93.146a1.262,1.262,0,1,1,0,2.524" transform="translate(37.932 19.956)" fill="#09f"/>
        <path id="パス_202" data-name="パス 202" d="M93.146,43.188H66.962A1.244,1.244,0,0,1,65.7,41.926a1.161,1.161,0,0,1,1.262-1.262H93.146a1.262,1.262,0,1,1,0,2.524" transform="translate(37.932 23.477)" fill="#09f"/>
        <path id="パス_203" data-name="パス 203" d="M93.146,49.288H66.962a1.262,1.262,0,1,1,0-2.524H93.146a1.262,1.262,0,1,1,0,2.524" transform="translate(37.932 26.999)" fill="#09f"/>
        <path id="パス_204" data-name="パス 204" d="M100.133,88.022H8.962A1.244,1.244,0,0,1,7.7,86.76V32.026a1.262,1.262,0,1,1,2.524,0V85.5h89.909a1.262,1.262,0,0,1,0,2.524" transform="translate(4.446 17.762)" fill="#09f"/>
        <rect id="長方形_70" data-name="長方形 70" width="12.146" height="41.8" transform="translate(63.883 56.255)" fill="#a6deeb"/>
        <path id="パス_205" data-name="パス 205" d="M53.107,79.188H40.962A1.244,1.244,0,0,1,39.7,77.926v-41.8a1.244,1.244,0,0,1,1.262-1.262H53.107a1.244,1.244,0,0,1,1.262,1.262v41.8a1.244,1.244,0,0,1-1.262,1.262M42.224,76.664h9.622V37.388H42.224Z" transform="translate(22.921 20.129)" fill="#09f"/>
        <rect id="長方形_71" data-name="長方形 71" width="12.146" height="30.285" transform="translate(42.589 67.769)" fill="#a6deeb"/>
        <path id="パス_206" data-name="パス 206" d="M39.607,74.973H27.462A1.244,1.244,0,0,1,26.2,73.711V43.426a1.244,1.244,0,0,1,1.262-1.262H39.607a1.244,1.244,0,0,1,1.262,1.262V73.711a1.357,1.357,0,0,1-1.262,1.262M28.724,72.449h9.622V44.688H28.724Z" transform="translate(15.127 24.343)" fill="#09f"/>
        <rect id="長方形_72" data-name="長方形 72" width="12.146" height="22.083" transform="translate(21.294 75.972)" fill="#a6deeb"/>
        <path id="パス_207" data-name="パス 207" d="M26.107,72.028H13.962A1.244,1.244,0,0,1,12.7,70.767V48.526a1.244,1.244,0,0,1,1.262-1.262H26.107a1.244,1.244,0,0,1,1.262,1.262V70.609a1.391,1.391,0,0,1-1.262,1.42M15.224,69.5h9.622V49.788H15.224Z" transform="translate(7.332 27.288)" fill="#09f"/>
        <path id="パス_208" data-name="パス 208" d="M14.762,54.821a1.191,1.191,0,0,1-1.1-.631,1.307,1.307,0,0,1,.473-1.735L54.2,28.322a1.272,1.272,0,1,1,1.262,2.208L15.393,54.664a.948.948,0,0,1-.631.158" transform="translate(7.794 16.261)" fill="#09f"/>
        <path id="パス_209" data-name="パス 209" d="M48.026,26.364H42.663l-5.363.158,4.259,3.786,1.262,5.363L45.5,31.1Z" transform="translate(21.535 15.221)" fill="#09f"/>
        <path id="パス_210" data-name="パス 210" d="M21.522,19.748a1.2,1.2,0,0,1-.789-.315L8.43,7.129a1.227,1.227,0,0,1,1.735-1.735l12.3,12.3a1.238,1.238,0,0,1,0,1.735,2.242,2.242,0,0,1-.946.315" transform="translate(4.662 2.909)" fill="#09f"/>
        <path id="パス_211" data-name="パス 211" d="M23.071,18.871a1.186,1.186,0,0,1-1.1-.789l-6.152-16.4A1.383,1.383,0,0,1,16.6.1c.631-.315,1.262.158,1.577.789l6.152,16.4a1.383,1.383,0,0,1-.789,1.577Z" transform="translate(9.107 0)" fill="#09f"/>
        <path id="パス_212" data-name="パス 212" d="M72.819,19.748a1.2,1.2,0,0,1-.789-.315,1.238,1.238,0,0,1,0-1.735l12.3-12.3a1.227,1.227,0,1,1,1.735,1.735l-12.3,12.146a1.363,1.363,0,0,1-.946.473" transform="translate(41.382 2.909)" fill="#09f"/>
        <path id="パス_213" data-name="パス 213" d="M69.077,18.849H68.6a1.3,1.3,0,0,1-.789-1.577L73.966.867A1.3,1.3,0,0,1,75.544.079a1.3,1.3,0,0,1,.789,1.577l-6.152,16.4a1.186,1.186,0,0,1-1.1.789" transform="translate(39.13 0.022)" fill="#09f"/>
      </g>
    </g>
  </g>
</svg>
