<svg id="グループ_180" data-name="グループ 180" xmlns="http://www.w3.org/2000/svg" xmlns:xlink="http://www.w3.org/1999/xlink" width="232" height="232" viewBox="0 0 232 232">
  <defs>
    <clipPath id="clip-path">
      <rect id="長方形_74" data-name="長方形 74" width="147.184" height="117.095" fill="none"/>
    </clipPath>
  </defs>
  <circle id="楕円形_4" data-name="楕円形 4" cx="116" cy="116" r="116" fill="#a6deeb"/>
  <g id="グループ_52" data-name="グループ 52" transform="translate(42.409 57.421)">
    <g id="グループ_51" data-name="グループ 51" clip-path="url(#clip-path)">
      <path id="パス_214" data-name="パス 214" d="M203.737,107.5c.668-.849,1.63-.2,1.092.738l-8.2,14.276L183.9,144.65l-3.076-2.079-3.075-2.079,15.8-20.058Z" transform="translate(-116.338 -70.099)" fill="#a6deeb"/>
      <path id="パス_215" data-name="パス 215" d="M181.929,143.721a1.037,1.037,0,0,1-.583-.179l-6.152-4.157a1.041,1.041,0,0,1-.235-1.507l25.985-32.994a1.7,1.7,0,1,1,2.815,1.9L182.832,143.2a1.04,1.04,0,0,1-.669.5,1.016,1.016,0,0,1-.235.027m-4.64-5.435,4.295,2.9,17.767-30.915Zm24.474-32.758h0Z" transform="translate(-114.364 -68.129)" fill="#09f"/>
      <path id="パス_216" data-name="パス 216" d="M152.355,229.794c-.763.918-2.311-.022-2.229-1.213l.227-3.3.381-5.526a4.289,4.289,0,0,1,.721-2.1,6.834,6.834,0,0,1,9.3-2.066,6.688,6.688,0,0,1,1.918,9.352l-.133.2a6.549,6.549,0,0,1-4.384,2.217c-1.264.156-3.342-.521-5.8,2.439" transform="translate(-98.255 -140.426)" fill="#a6deeb"/>
      <path id="パス_217" data-name="パス 217" d="M149.61,229.244a2.325,2.325,0,0,1-.861-.172,2.584,2.584,0,0,1-1.635-2.526l.609-8.825a5.324,5.324,0,0,1,.9-2.609,7.882,7.882,0,0,1,10.731-2.36,7.73,7.73,0,0,1,2.217,10.808l-.135.2c-1.108,1.638-3.45,2.46-5.119,2.666a7.7,7.7,0,0,1-.917.037,4.654,4.654,0,0,0-4.213,2.034,2.019,2.019,0,0,1-1.573.747m.772-1.413h0Zm4.873-14.2a5.945,5.945,0,0,0-4.908,2.641,3.24,3.24,0,0,0-.546,1.589l-.608,8.825a.462.462,0,0,0,.151.328.5.5,0,0,0,.244.141,6.709,6.709,0,0,1,5.808-2.778h.131a4.445,4.445,0,0,0,.531-.021,5.648,5.648,0,0,0,3.65-1.767l.133-.2a5.647,5.647,0,0,0-1.622-7.893,5.428,5.428,0,0,0-2.964-.868" transform="translate(-96.282 -138.463)" fill="#09f"/>
      <path id="パス_218" data-name="パス 218" d="M157.73,157.846H38.544A1.042,1.042,0,0,1,37.5,156.8V88.046A1.042,1.042,0,0,1,38.544,87H157.73a1.042,1.042,0,0,1,1.042,1.042V156.8a1.042,1.042,0,0,1-1.042,1.042M39.586,155.763h117.1V89.088H39.586Z" transform="translate(-24.545 -56.944)" fill="#09f"/>
      <path id="パス_219" data-name="パス 219" d="M152.693,152.808a1.042,1.042,0,0,1-1.042-1.042V78.473a5.7,5.7,0,0,0-5.69-5.69H28.973a5.7,5.7,0,0,0-5.69,5.69v73.293a1.042,1.042,0,1,1-2.084,0V78.473A7.783,7.783,0,0,1,28.973,70.7H145.96a7.783,7.783,0,0,1,7.774,7.774v73.293a1.042,1.042,0,0,1-1.042,1.042" transform="translate(-13.875 -46.272)" fill="#09f"/>
      <path id="パス_220" data-name="パス 220" d="M144.707,314.963H8.271a3.85,3.85,0,0,1-3.844-3.845v-4.954a3.849,3.849,0,0,1,3.844-3.844H144.707a3.849,3.849,0,0,1,3.844,3.844v4.954a3.85,3.85,0,0,1-3.844,3.845M8.271,304.4a1.763,1.763,0,0,0-1.761,1.761v4.954a1.763,1.763,0,0,0,1.761,1.761H144.707a1.763,1.763,0,0,0,1.761-1.761v-4.954a1.763,1.763,0,0,0-1.761-1.761Z" transform="translate(-2.897 -197.868)" fill="#09f"/>
      <path id="パス_221" data-name="パス 221" d="M198.536,310.11H180.831a3.46,3.46,0,0,1-3.456-3.456V306.2a1.042,1.042,0,0,1,2.084,0v.451a1.374,1.374,0,0,0,1.372,1.372h17.705a1.374,1.374,0,0,0,1.372-1.372V306.2a1.042,1.042,0,0,1,2.084,0v.451a3.459,3.459,0,0,1-3.456,3.456" transform="translate(-116.092 -199.728)" fill="#09f"/>
      <path id="パス_222" data-name="パス 222" d="M11.939,32.724a1.039,1.039,0,0,1-.736-.306L.306,21.52a1.041,1.041,0,0,1,1.473-1.473l10.9,10.9a1.042,1.042,0,0,1-.736,1.778" transform="translate(0 -12.921)" fill="#09f"/>
      <path id="パス_223" data-name="パス 223" d="M37.813,16.53a1.041,1.041,0,0,1-.976-.679L31.468,1.4A1.041,1.041,0,1,1,33.421.679l5.368,14.447a1.042,1.042,0,0,1-.976,1.4" transform="translate(-20.553 0)" fill="#09f"/>
      <path id="パス_224" data-name="パス 224" d="M389.471,32.724a1.042,1.042,0,0,1-.736-1.778l10.9-10.9A1.041,1.041,0,0,1,401.1,21.52l-10.9,10.9a1.038,1.038,0,0,1-.736.306" transform="translate(-254.227 -12.921)" fill="#09f"/>
      <path id="パス_225" data-name="パス 225" d="M374.072,16.53a1.042,1.042,0,0,1-.976-1.4L378.463.679a1.041,1.041,0,0,1,1.952.726l-5.368,14.446a1.041,1.041,0,0,1-.976.679" transform="translate(-244.147 0)" fill="#09f"/>
      <path id="パス_226" data-name="パス 226" d="M111.43,227.621a16.931,16.931,0,0,0,.815,3.583,16.92,16.92,0,0,0,2.619,2.577,16.907,16.907,0,0,0-3.583.815,16.921,16.921,0,0,0-2.577,2.619,16.9,16.9,0,0,0-.815-3.582,16.921,16.921,0,0,0-2.619-2.577,16.934,16.934,0,0,0,3.582-.815,16.905,16.905,0,0,0,2.577-2.619" transform="translate(-68.9 -148.978)" fill="#a6deeb"/>
      <path id="パス_227" data-name="パス 227" d="M106.733,236.285a1.018,1.018,0,0,1-.284-.04,1.041,1.041,0,0,1-.748-.865,15.253,15.253,0,0,0-.692-3.21,15.259,15.259,0,0,0-2.367-2.279,1.042,1.042,0,0,1,.522-1.839,15.324,15.324,0,0,0,3.211-.691,15.369,15.369,0,0,0,2.278-2.369,1.042,1.042,0,0,1,1.839.523,15.3,15.3,0,0,0,.692,3.213A15.358,15.358,0,0,0,113.551,231a1.042,1.042,0,0,1-.522,1.839,15.3,15.3,0,0,0-3.213.692,15.326,15.326,0,0,0-2.276,2.368,1.044,1.044,0,0,1-.807.382m-1.116-6.542a4.677,4.677,0,0,1,1.774,3.181,4.664,4.664,0,0,1,3.181-1.774,4.669,4.669,0,0,1-1.773-3.181,4.674,4.674,0,0,1-3.182,1.773" transform="translate(-66.927 -147.007)" fill="#09f"/>
      <path id="パス_228" data-name="パス 228" d="M85.918,165s.584,4.411,1.293,5.684,4.156,4.088,4.156,4.088-4.411.584-5.684,1.293-4.088,4.155-4.088,4.155-.584-4.411-1.293-5.684-4.156-4.088-4.156-4.088,4.411-.584,5.684-1.294S85.918,165,85.918,165" transform="translate(-49.837 -107.99)" fill="#a6deeb"/>
      <path id="パス_229" data-name="パス 229" d="M79.622,179.284a1.008,1.008,0,0,1-.285-.04,1.041,1.041,0,0,1-.748-.865,24.367,24.367,0,0,0-1.17-5.313,24.32,24.32,0,0,0-3.9-3.789,1.041,1.041,0,0,1,.522-1.839,24.337,24.337,0,0,0,5.313-1.171,24.374,24.374,0,0,0,3.789-3.9,1.042,1.042,0,0,1,1.839.522,24.324,24.324,0,0,0,1.171,5.313,24.344,24.344,0,0,0,3.9,3.789,1.042,1.042,0,0,1-.522,1.839A24.3,24.3,0,0,0,84.217,175a24.358,24.358,0,0,0-3.789,3.9,1.041,1.041,0,0,1-.806.383m-3.061-10.136a15.12,15.12,0,0,1,2.678,2.9,15.121,15.121,0,0,1,1.062,3.8,15.075,15.075,0,0,1,2.9-2.678,15.117,15.117,0,0,1,3.8-1.062,15.13,15.13,0,0,1-2.678-2.9,15.107,15.107,0,0,1-1.062-3.8,15.131,15.131,0,0,1-2.9,2.678,15.1,15.1,0,0,1-3.8,1.062" transform="translate(-47.864 -106.014)" fill="#09f"/>
    </g>
  </g>
</svg>
