<svg xmlns="http://www.w3.org/2000/svg" xmlns:xlink="http://www.w3.org/1999/xlink" width="232" height="232" viewBox="0 0 232 232">
  <defs>
    <clipPath id="clip-path">
      <rect id="長方形_75" data-name="長方形 75" width="107.64" height="152.547" fill="none"/>
    </clipPath>
  </defs>
  <g id="グループ_182" data-name="グループ 182" transform="translate(-96 -211)">
    <g id="グループ_177" data-name="グループ 177">
      <path id="パス_246" data-name="パス 246" d="M116,0A116,116,0,1,1,0,116,116,116,0,0,1,116,0Z" transform="translate(96 211)" fill="#a6deeb"/>
    </g>
    <g id="グループ_96" data-name="グループ 96" transform="translate(158 254.459)">
      <g id="グループ_53" data-name="グループ 53" clip-path="url(#clip-path)">
        <path id="パス_230" data-name="パス 230" d="M68.406,163.963h-10a10.1,10.1,0,0,1-10.1-10.1v-.837a31.121,31.121,0,0,0-.875-7.322,31.712,31.712,0,0,0-2.52-6.829,32.8,32.8,0,0,0-4.007-6.11,33.849,33.849,0,0,0-5.334-5.159,45.644,45.644,0,0,1-13.18-16.295,45.182,45.182,0,0,1-3.47-10.186,45.847,45.847,0,0,1-.958-11.111,44.811,44.811,0,0,1,3.811-16.6A45.954,45.954,0,0,1,44.69,50.237a44.771,44.771,0,0,1,16.557-4A45.388,45.388,0,0,1,94.8,58.77a45.562,45.562,0,0,1,10.289,14.7,45.15,45.15,0,0,1,3.786,18.193A45.451,45.451,0,0,1,91.45,127.445a34.862,34.862,0,0,0-5.424,5.3A33.753,33.753,0,0,0,81.953,139a32.623,32.623,0,0,0-2.561,6.984,31.982,31.982,0,0,0-.889,7.482v.4a10.1,10.1,0,0,1-10.1,10.1M63.425,48.54q-1.031,0-2.069.048A43.268,43.268,0,0,0,20.314,90.1a43.488,43.488,0,0,0,.909,10.541,42.925,42.925,0,0,0,8.655,18.128,43.463,43.463,0,0,0,7.136,6.983,36.206,36.206,0,0,1,5.7,5.517,35.159,35.159,0,0,1,4.294,6.548,34.071,34.071,0,0,1,2.707,7.336,33.479,33.479,0,0,1,.941,7.875v.837a7.756,7.756,0,0,0,7.748,7.747h10a7.756,7.756,0,0,0,7.748-7.747v-.4a34.334,34.334,0,0,1,.955-8.032,34.98,34.98,0,0,1,2.745-7.488,36.122,36.122,0,0,1,4.357-6.694A37.2,37.2,0,0,1,90,125.6a43.293,43.293,0,0,0,12.038-14.76,42.843,42.843,0,0,0,3.322-9.167,43.311,43.311,0,0,0,1.168-10.006,42.922,42.922,0,0,0-7.792-24.731A43.219,43.219,0,0,0,78.827,51.38a42.853,42.853,0,0,0-15.4-2.839" transform="translate(-11.51 -29.641)" fill="#09f"/>
        <path id="パス_231" data-name="パス 231" d="M133.428,388.694h-23.54a1.175,1.175,0,0,1,0-2.35h23.54a1.175,1.175,0,1,1,0,2.35" transform="translate(-69.762 -247.917)" fill="#09f"/>
        <path id="パス_232" data-name="パス 232" d="M135.43,405.118H116.952a1.175,1.175,0,1,1,0-2.35H135.43a1.175,1.175,0,0,1,0,2.35" transform="translate(-74.294 -258.456)" fill="#09f"/>
        <path id="パス_233" data-name="パス 233" d="M137.382,421.543H123.84a1.175,1.175,0,0,1,0-2.35h13.542a1.175,1.175,0,0,1,0,2.35" transform="translate(-78.714 -268.996)" fill="#09f"/>
        <path id="パス_234" data-name="パス 234" d="M12.694,33.991a1.172,1.172,0,0,1-.831-.344L.344,22.128a1.175,1.175,0,0,1,1.661-1.661L13.525,31.985a1.175,1.175,0,0,1-.831,2.006" transform="translate(0 -12.912)" fill="#09f"/>
        <path id="パス_235" data-name="パス 235" d="M38.857,17.62a1.176,1.176,0,0,1-1.1-.766L32.081,1.584a1.175,1.175,0,0,1,2.2-.818l5.674,15.27a1.175,1.175,0,0,1-1.1,1.584" transform="translate(-20.539 0)" fill="#09f"/>
        <path id="パス_236" data-name="パス 236" d="M262.886,33.991a1.175,1.175,0,0,1-.831-2.006l11.519-11.519a1.175,1.175,0,0,1,1.661,1.661L263.717,33.647a1.172,1.172,0,0,1-.831.344" transform="translate(-167.94 -12.912)" fill="#09f"/>
        <path id="パス_237" data-name="パス 237" d="M247.189,17.62a1.175,1.175,0,0,1-1.1-1.584L251.762.766a1.175,1.175,0,1,1,2.2.818l-5.675,15.27a1.176,1.176,0,0,1-1.1.766" transform="translate(-157.867 0)" fill="#09f"/>
        <path id="パス_238" data-name="パス 238" d="M93.161,118.3a14.715,14.715,0,0,0,.484-2.891l2.36-.4a2.226,2.226,0,0,0,1.444-.892,2.1,2.1,0,0,0,.37-1.621l-.592-3.258a2.23,2.23,0,0,0-2.591-1.759l-2.435.417a15.064,15.064,0,0,0-1.484-2.412l1.657-1.917A2.129,2.129,0,0,0,92.1,100.5L89.49,98.38a2.283,2.283,0,0,0-3.15.268l-1.7,1.969a15.929,15.929,0,0,0-2.621-.918V97.062a2.206,2.206,0,0,0-2.236-2.17H76.373a2.206,2.206,0,0,0-2.236,2.17V99.7a15.907,15.907,0,0,0-2.584.9l-1.779-2.057a2.284,2.284,0,0,0-3.15-.268l-2.61,2.126a2.128,2.128,0,0,0-.276,3.056l1.72,1.989a14.993,14.993,0,0,0-1.44,2.32l-2.64-.451a2.272,2.272,0,0,0-1.67.359,2.153,2.153,0,0,0-.92,1.4l-.592,3.257a2.179,2.179,0,0,0,1.815,2.512l2.485.426a14.7,14.7,0,0,0,.437,2.782l-2.177,1.22a2.139,2.139,0,0,0-.818,2.964l1.7,2.863A2.212,2.212,0,0,0,63,126.11a2.28,2.28,0,0,0,1.7-.216l2.028-1.138A15.542,15.542,0,0,0,69,126.689l-.8,2.129a2.156,2.156,0,0,0,1.337,2.781l3.2,1.132a2.261,2.261,0,0,0,2.865-1.3l.757-2.019a13.761,13.761,0,0,0,3.1.034l.765,2.039a2.238,2.238,0,0,0,2.1,1.428,2.279,2.279,0,0,0,.763-.132l3.2-1.131a2.2,2.2,0,0,0,1.262-1.121,2.1,2.1,0,0,0,.075-1.66l-.753-2.006a15.613,15.613,0,0,0,2.37-1.934m-11.172-3.3a7.273,7.273,0,1,1,7.491-7.269,7.391,7.391,0,0,1-7.491,7.269" transform="translate(-37.322 -60.892)" fill="#a6deeb"/>
        <path id="パス_239" data-name="パス 239" d="M79.509,131.987a3.357,3.357,0,0,1-3.144-2.2l-.439-1.206a13.306,13.306,0,0,1-1.414-.016l-.425,1.167a3.349,3.349,0,0,1-4.283,2l-3.11-1.133a3.35,3.35,0,0,1-2-4.287l.48-1.316q-.518-.416-1-.875l-1.187.686a3.345,3.345,0,0,1-4.569-1.225l-1.653-2.862a3.351,3.351,0,0,1,1.223-4.569l1.369-.79q-.113-.592-.183-1.194l-1.525-.269a3.348,3.348,0,0,1-2.714-3.873l.575-3.257a3.345,3.345,0,0,1,3.874-2.713l1.715.3q.267-.48.567-.943l-1.094-1.3a3.349,3.349,0,0,1,.413-4.712l2.532-2.125a3.346,3.346,0,0,1,4.713.414l1.165,1.388q.493-.2.993-.358V94.957a3.349,3.349,0,0,1,3.345-3.345h3.306a3.348,3.348,0,0,1,3.344,3.345v1.759q.521.168,1.031.372l1.091-1.3a3.344,3.344,0,0,1,4.712-.412L89.746,97.5a3.347,3.347,0,0,1,.411,4.713l-1.033,1.232q.328.507.616,1.033l1.508-.266a3.343,3.343,0,0,1,3.875,2.711l.574,3.259a3.343,3.343,0,0,1-2.716,3.874l-1.406.248a16.13,16.13,0,0,1-.42,2.191,1.175,1.175,0,0,1-2.271-.6,13.975,13.975,0,0,0,.433-2.666,1.175,1.175,0,0,1,.968-1.08l2.29-.4a1,1,0,0,0,.808-1.152l-.574-3.257a.992.992,0,0,0-.412-.645.978.978,0,0,0-.737-.162l-2.367.417a1.175,1.175,0,0,1-1.265-.652,14.009,14.009,0,0,0-1.328-2.225,1.175,1.175,0,0,1,.049-1.447l1.608-1.917a1,1,0,0,0-.122-1.4L85.7,97.176a.995.995,0,0,0-1.4.121l-1.654,1.971a1.175,1.175,0,0,1-1.4.31,14.022,14.022,0,0,0-2.346-.846,1.175,1.175,0,0,1-.877-1.137V94.957a1,1,0,0,0-.995-.995H73.73a1,1,0,0,0-.995.995V97.6a1.175,1.175,0,0,1-.878,1.137,13.927,13.927,0,0,0-2.312.831,1.175,1.175,0,0,1-1.392-.312l-1.726-2.057a1,1,0,0,0-1.4-.124L62.492,99.2a1,1,0,0,0-.123,1.4l1.668,1.987a1.176,1.176,0,0,1,.048,1.449,13.954,13.954,0,0,0-1.289,2.139,1.175,1.175,0,0,1-1.261.644l-2.562-.451a.995.995,0,0,0-1.153.808l-.575,3.256a1,1,0,0,0,.808,1.152l2.412.426a1.174,1.174,0,0,1,.968,1.088,13.986,13.986,0,0,0,.392,2.566,1.175,1.175,0,0,1-.552,1.3l-2.113,1.22a1,1,0,0,0-.363,1.359l1.653,2.863a1,1,0,0,0,1.36.363l1.967-1.136a1.175,1.175,0,0,1,1.443.212,14.1,14.1,0,0,0,2.038,1.784,1.175,1.175,0,0,1,.419,1.357l-.775,2.129a1,1,0,0,0,.6,1.276l3.108,1.132a1,1,0,0,0,1.274-.6l.735-2.018a1.175,1.175,0,0,1,1.243-.765,11.761,11.761,0,0,0,2.754.032,1.175,1.175,0,0,1,1.219.767l.743,2.039a1,1,0,0,0,.936.655.982.982,0,0,0,.338-.061l3.108-1.131a.994.994,0,0,0,.595-1.275l-.731-2.005a1.175,1.175,0,0,1,.44-1.371,14.138,14.138,0,0,0,2.123-1.785,1.175,1.175,0,1,1,1.682,1.641,16.482,16.482,0,0,1-1.734,1.542l.427,1.174a3.343,3.343,0,0,1-2,4.287l-3.106,1.131a3.319,3.319,0,0,1-1.143.2M75.382,120.7a8.445,8.445,0,1,1,8.444-8.444,8.454,8.454,0,0,1-8.444,8.444m0-14.539a6.095,6.095,0,1,0,6.095,6.1,6.1,6.1,0,0,0-6.095-6.1" transform="translate(-35.217 -58.787)" fill="#09f"/>
        <path id="パス_240" data-name="パス 240" d="M148.8,147.073l-.674-3.82a2.542,2.542,0,0,0-2.948-2.063l-2.771.489a17.8,17.8,0,0,0-1.688-2.828l1.886-2.248a2.549,2.549,0,0,0-.313-3.585l-2.97-2.492a2.544,2.544,0,0,0-3.585.315L133.8,133.15a17.764,17.764,0,0,0-2.982-1.076V128.98a2.547,2.547,0,0,0-2.545-2.544H124.4a2.547,2.547,0,0,0-2.544,2.544v3.1a17.693,17.693,0,0,0-2.941,1.056l-2.024-2.412a2.546,2.546,0,0,0-3.585-.314l-2.969,2.493a2.546,2.546,0,0,0-.314,3.584l1.957,2.332a17.725,17.725,0,0,0-1.639,2.72l-3-.529a2.544,2.544,0,0,0-2.948,2.064l-.673,3.819a2.547,2.547,0,0,0,2.064,2.947l2.828.5a17.762,17.762,0,0,0,.5,3.262l-2.477,1.43a2.548,2.548,0,0,0-.93,3.476l1.938,3.358a2.545,2.545,0,0,0,3.475.931l2.309-1.334a17.856,17.856,0,0,0,2.589,2.267l-.91,2.5a2.549,2.549,0,0,0,1.521,3.262l3.644,1.327a2.551,2.551,0,0,0,3.26-1.521l.861-2.367a15.211,15.211,0,0,0,3.529.04l.871,2.391a2.541,2.541,0,0,0,3.261,1.52l3.643-1.326a2.543,2.543,0,0,0,1.521-3.261l-.857-2.352a17.88,17.88,0,0,0,2.7-2.268l2.23,1.287a2.544,2.544,0,0,0,3.476-.93l1.939-3.358a2.543,2.543,0,0,0-.932-3.474l-2.26-1.306a17.69,17.69,0,0,0,.551-3.39l2.685-.474a2.544,2.544,0,0,0,2.066-2.946m-22.545,10.182a8.525,8.525,0,1,1,8.524-8.524,8.534,8.534,0,0,1-8.524,8.524" transform="translate(-66.527 -81.134)" fill="#a6deeb"/>
        <path id="パス_241" data-name="パス 241" d="M129.07,170.1a3.732,3.732,0,0,1-3.5-2.448l-.566-1.554a15.533,15.533,0,0,1-1.936-.022l-.55,1.512a3.725,3.725,0,0,1-4.763,2.224l-3.647-1.329a3.725,3.725,0,0,1-2.223-4.768l.612-1.681q-.721-.57-1.385-1.21l-1.524.88a3.719,3.719,0,0,1-5.081-1.362l-1.938-3.357a3.724,3.724,0,0,1,1.359-5.08l1.73-1c-.111-.553-.2-1.113-.258-1.677l-1.937-.342a3.724,3.724,0,0,1-3.017-4.307l.674-3.819a3.719,3.719,0,0,1,4.307-3.017l2.153.379q.375-.687.809-1.346l-1.38-1.644a3.722,3.722,0,0,1,.46-5.24l2.968-2.492a3.721,3.721,0,0,1,5.241.46l1.461,1.741c.471-.191.948-.363,1.428-.514v-2.211a3.723,3.723,0,0,1,3.719-3.719h3.876a3.723,3.723,0,0,1,3.72,3.719v2.21q.745.235,1.472.532l1.374-1.637a3.719,3.719,0,0,1,5.24-.459l2.97,2.491a3.724,3.724,0,0,1,.458,5.241l-1.309,1.56q.468.712.866,1.451l1.913-.338a3.717,3.717,0,0,1,4.309,3.015l.674,3.821h0a3.719,3.719,0,0,1-3.021,4.307l-1.8.317c-.07.612-.168,1.217-.295,1.811l1.5.867a3.719,3.719,0,0,1,1.361,5.08l-1.938,3.357a3.719,3.719,0,0,1-5.083,1.359l-1.457-.841a19.052,19.052,0,0,1-1.473,1.238l.553,1.517a3.718,3.718,0,0,1-2.223,4.767l-3.643,1.326a3.69,3.69,0,0,1-1.27.226m-3.262-6.415a1.175,1.175,0,0,1,1.1.773l.871,2.391a1.375,1.375,0,0,0,1.288.9,1.352,1.352,0,0,0,.465-.084l3.644-1.326a1.369,1.369,0,0,0,.819-1.755l-.856-2.352a1.175,1.175,0,0,1,.44-1.371,16.772,16.772,0,0,0,2.52-2.119,1.174,1.174,0,0,1,1.428-.2l2.23,1.287a1.369,1.369,0,0,0,1.871-.5l1.939-3.358a1.369,1.369,0,0,0-.5-1.868l-2.263-1.307a1.175,1.175,0,0,1-.547-1.32,16.525,16.525,0,0,0,.515-3.165,1.175,1.175,0,0,1,.968-1.08l2.685-.474a1.369,1.369,0,0,0,1.113-1.586l-.673-3.82a1.367,1.367,0,0,0-.568-.887,1.347,1.347,0,0,0-1.016-.223l-2.775.489a1.175,1.175,0,0,1-1.265-.652,16.657,16.657,0,0,0-1.577-2.641,1.175,1.175,0,0,1,.05-1.446l1.886-2.248a1.371,1.371,0,0,0-.169-1.93l-2.97-2.491a1.369,1.369,0,0,0-1.928.168L132.6,131.8a1.175,1.175,0,0,1-1.4.31,16.608,16.608,0,0,0-2.785-1,1.175,1.175,0,0,1-.877-1.137v-3.094a1.371,1.371,0,0,0-1.37-1.369h-3.876a1.371,1.371,0,0,0-1.369,1.369v3.095a1.175,1.175,0,0,1-.878,1.137,16.579,16.579,0,0,0-2.745.986,1.175,1.175,0,0,1-1.392-.312l-2.024-2.412a1.371,1.371,0,0,0-1.93-.17l-2.969,2.493a1.372,1.372,0,0,0-.169,1.929l1.956,2.331a1.175,1.175,0,0,1,.048,1.449,16.566,16.566,0,0,0-1.53,2.54,1.174,1.174,0,0,1-1.261.644l-3-.529a1.37,1.37,0,0,0-1.587,1.112l-.673,3.818a1.37,1.37,0,0,0,1.111,1.585l2.828.5a1.175,1.175,0,0,1,.968,1.088,16.631,16.631,0,0,0,.465,3.046,1.175,1.175,0,0,1-.552,1.3l-2.477,1.43a1.372,1.372,0,0,0-.5,1.871l1.938,3.358a1.37,1.37,0,0,0,1.871.5l2.307-1.333a1.174,1.174,0,0,1,1.443.212,16.712,16.712,0,0,0,2.419,2.117,1.175,1.175,0,0,1,.419,1.357l-.91,2.5a1.372,1.372,0,0,0,.819,1.756l3.644,1.327a1.375,1.375,0,0,0,1.754-.82l.861-2.366a1.174,1.174,0,0,1,1.243-.765,13.96,13.96,0,0,0,3.274.038c.039,0,.078-.006.116-.006m-1.655-7.355a9.7,9.7,0,1,1,9.7-9.7,9.71,9.71,0,0,1-9.7,9.7m0-17.049a7.35,7.35,0,1,0,7.349,7.351,7.358,7.358,0,0,0-7.349-7.351" transform="translate(-64.423 -79.03)" fill="#09f"/>
      </g>
    </g>
  </g>
</svg>
